<?xml version="1.0" encoding="utf-8"?>
<!-- Generator: Adobe Illustrator 22.1.0, SVG Export Plug-In . SVG Version: 6.00 Build 0)  -->
<svg version="1.1" xmlns="http://www.w3.org/2000/svg" xmlns:xlink="http://www.w3.org/1999/xlink" x="0px" y="0px"
	 viewBox="0 0 994 496" style="enable-background:new 0 0 994 496;" xml:space="preserve">
<style type="text/css">
	.st0{opacity:0.25;}
	.st1{fill:#FFFFFF;}
	.st2{fill:none;stroke:#FFFFFF;stroke-width:0.7;stroke-miterlimit:10;}
	.st3{fill:none;stroke:#64D8F0;stroke-width:0.3;stroke-miterlimit:10;}
	.st4{fill:#64D8F0;}
</style>
<g id="WERELD">
	<g class="st0">
		<path class="st1" d="M400.2,15.9c2.2,1.9,4.7,0.6,7-1.4s5-0.6,9.8-1.8c4.7-1.3,9.2-1.3,14,0.1c4.7,1.4-4.8,2.1-7.6,5.8
			c-2.7,3.7-6.3,4.5-9.7,8.2c-3.4,3.7-7.8,2.8-3.9,5.2c3.9,2.4,10.3,4,6.4,5.4c-3.9,1.4-4.4,2-3,4.7c1.4,2.7,1.2,5.7-1.7,8.2
			c-2.8,2.5-4.7,4.9-6,4.9c-1.3,0,0,1,1.8,4s-1.3,5.4-0.2,7.6c1,2.2-3.7,0.6-4.9,1.7c-1.2,1.1,1.1,2-0.9,3.8c-2,1.8-9.1,2.9-14,5.3
			c-4.8,2.4-5.6,0.7-13.1,5.5c-7.6,4.7-5.9,7.4-13.4,6.4c-7.6-1-5.5,2.4-8.1,7.2c-2.6,4.8-7.8,13.9-7.8,15.5c0,1.7-0.9-3.5-5.7-3.1
			c-4.7,0.4-7.3,2.3-7.9-1.6c-0.5-3.9-6.2-5.7-7.3-8.5c-1.2-2.8,1.3-2.7-1.9-7.5c-3.1-4.8-6.7-9.1-3.1-12.3c3.6-3.1,6.6-5.4,4.8-6.9
			c-1.7-1.5-5.7,4.1-9.1,3.1c-3.5-0.9-4.2-8.9-0.3-9.2c3.9-0.4,6.8,1.8,8.7,1.3c1.9-0.5,1.9-5.2-2.2-5.7s-10.1,1.6-7.2-4.1
			c2.8-5.6-0.5-8-6.6-13.4c-6.1-5.4-17.4-4.9-23.2-4c-5.8,0.9-16.8,1.2-15.4-1.8c1.4-3,10.9,0.2,1.2-4.6c-9.8-4.8-2-6,3.5-6.7
			c5.5-0.7,13.6-0.7,12.9-3.2c-0.7-2.5-8.1-1.3-6.7-3.8c1.4-2.5,7.7-1.8,11.3-4.2c3.7-2.4,7-2.3,9.6-4.6c2.7-2.4,13.7-1.1,14.6-1.8
			c0.9-0.8,0.1,4.6,7.1,3.6c7-1,5.6-2.6,5.6-4.2s0.9-3.7,5.1,0c4.2,3.7,9.8,6.5,7.3,3s-4.2-5-0.2-6c4-1,8.1-5.1,10.7-2.8
			c2.6,2.3,6.5,0.6,9.8-1.5c3.3-2,16.2-1,22.3-1c6.2,0,2.2-1.8,13.1,2.3s12.3,3,13.8,4.3c1.6,1.4-3.9,3.1-4.7,3.1
			c-0.8,0,0.5,1.5-1,2.9C402.2,14.4,398.9,14.8,400.2,15.9z"/>
		<path class="st1" d="M401.6,90.7c2.9,2.2,0.9,2.4,0.6,4.4c-0.4,2,2.9,0.1,7.1,2.8c4.2,2.8,1.8-0.6,7.2-0.6s5-2,8.8-3.5
			c3.8-1.5,7.2-4.2,3.3-4.2s-3.3-2.4-5.2-4c-1.9-1.7-0.2,0.4-4.2,1.7c-4,1.3-3.8-4.2-6.8-1c-3,3.2-2.2,5.6-4.2,3.1
			c-2-2.5-0.9-6.5-3.7-4.8C401.7,86.4,400.1,89.5,401.6,90.7z"/>
		<path class="st1" d="M519.8,35.4c-3.3,2.9-5.4,6.9-8.6,5.1c-3.1-1.8-5.7-3.9-6.5-4.5c-0.7-0.6-4.3-4.4,0.9-4.4s8.7-0.8,5.9-1.6
			c-2.8-0.8-2.5-1.1-5.7-0.3c-3.1,0.8-5.3-0.4-5.9-2.9c-0.6-2.5,4.2-6,6.4-4.1c2.2,1.9,3.4,5,3.9,2.3c0.6-2.7,3.3-3.5,5.9-1.9
			c2.6,1.6,5.6,4.4,4.3,1.3c-1.3-3-0.2-8.7,4.2-6.2c4.3,2.5,4.2,3.7,8.3,3.2c4.1-0.5,11.7-1.7,11,0.5c-0.7,2.1-6.5,4.6-7.2,5.9
			c-0.8,1.2-6.8-1.7-10.1-1.2c-3.3,0.6-5.9,0.5-2.4,2.7s3,1.7,5.6,4.1c2.6,2.3,6.4,1.8,6,2.8c-0.4,1-8.5,3.3-10,1.4
			c-1.5-1.9-1.5-3.8-3-5.1C521.3,31.3,521.6,33.8,519.8,35.4z"/>
		<path class="st1" d="M587.5,20.3c4.2,1.8,8.1-0.9,10-0.6c1.9,0.3,0.9,2.4,3.6,3.4c2.7,1,2.2-2.3,6.9-0.5c4.7,1.8,6.7-0.6,7.5-1.2
			c0.8-0.7,2.2-1.9,4-0.3c1.8,1.6,1.1,0.6,6.1,1c5,0.4,5.4-0.1,6.9,1.2c1.5,1.4,1.5-0.5,3-1.8c1.5-1.3,1.8-3.2,5.1-2.5
			c3.3,0.7,1.7,1.8,6.1-0.1s6.8-6.1,3-4.6c-3.8,1.5-3.9,2.9-6.6,2.9s-4.1-3.4-6.8-1s-1.6,3.9-4.2,3.3c-2.6-0.6-1.1-1.5-5.9,0
			c-4.8,1.5-4.3,1.5-6.6,0.1c-2.3-1.5-4-0.9-6.4-0.1c-2.4,0.8-1.6,2.2-2.8,0c-1.3-2.2-1.7-2.1-5.8-0.8c-4.1,1.4-2.1-3.3-6.7-2.2
			C593.3,17.4,583,18.3,587.5,20.3z"/>
		<path class="st1" d="M868.3,444.3c4.2,1.6,3.9,0.5,5.2-0.2s1.9,1.7,1.2,4.1c-0.7,2.4-1.3,5-3.4,5.6c-2.1,0.6-2.6-3.4-4-5
			C866,447.2,861.6,441.8,868.3,444.3z"/>
		<path class="st1" d="M884.9,421.6c-3.5,5-0.5,11.1-3.5,12.4c-3,1.3-2.9,1.7-7.1,3.5c-4.2,1.8-5.2-4.8-7.4-2.8
			c-2.2,1.9-2.5,3.7-7.2,0.3c-4.7-3.4-4.4-5.8-6.2-9.1c-1.8-3.3-5.2-8.1-5.2-9.4s-1.6,9.4-6.3,4.5s-2.7-9.8-13.4-8.4
			c-10.7,1.4-13.6,2.3-15.7,4.8c-2,2.6-5.2,0.4-9.9,1.8c-4.7,1.4-10.9,6.9-13.5,2.1c-2.5-4.8,3.1-7.8-1.4-14.7
			c-4.5-6.9-4.6-10.7-4.6-15.9c0-5.2-4.1-7,2-9.4c6.1-2.4,12.4-0.8,19-6.7c6.7-5.9,2.8-7.8,7.5-11.9c4.7-4.2,8.7-7.3,9.7-4.5
			c0.9,2.8,2.7,5.4,5.3,3.1c2.6-2.3,0.2-8.1,6.5-8.1c6.3,0,5.9-1,9.3-1c3.4,0,5.3,1.9,2.7,4.2c-2.7,2.4-2.8,5.4,0.2,7.1
			c3.1,1.7,6.3,2.5,8.3,4.3c2,1.8,3.9,1.8,5-0.3c1.1-2.1,2.9-3,1.4-7.2c-1.5-4.2,1.4-5.7,1.4-9.2c0-3.5,2.3,0.9,3.3,3.7
			c1,2.8-1.6,5.4,1.3,5.4s5.8,1.1,5.8,3.9c0,2.8-0.5,8.3,1.1,9.8c1.6,1.4,5.4,3.6,8.4,8.7c3,5.1,9.6,8.9,9.6,12.5s-1.3,5.5,0,8.2
			c1.3,2.7,1.7,6.2,0,9.4C889.7,415.6,887.2,418.4,884.9,421.6z"/>
		<path class="st1" d="M912,444.4c-1.9,3.2-1.9,6.8-5.4,9.9c-3.5,3.1-7.7,2.1-10.2,5.9c-2.5,3.7-0.8,2.3,2.6,4.4
			c3.4,2.1,5.3,2.2,8-1.6c2.7-3.8,1.2-4.1,3.1-5.8c1.9-1.7,6.6-6,7-8.9C917.5,445.3,913,442.7,912,444.4z"/>
		<path class="st1" d="M922.1,446.3c-2,0.9-1.1-1.7-3.3-3.7c-2.2-1.9-3.9-1-1.7-3.9c2.2-2.8,4.1-2.6,0.9-7.2
			c-3.2-4.6-5.6-6.7-5.6-7.6c0-0.8,3.9,0.6,6.1,3.9c2.2,3.3,2.6,4,3.5,4.8c1,0.9-1.9,3.2,2.2,3.2c4.1,0,7.4-3.5,5.2,1.9
			C927.3,443.2,922.1,446.3,922.1,446.3z"/>
		<path class="st1" d="M602.8,353.2c2.1,4.1,4.5,6.1,2.5,10.3c-2,4.2-5.3,9.4-6.6,16.7c-1.3,7.3-2.3,11.6-7.2,11.6
			c-4.9,0-4.2-3-5-6.4c-0.8-3.4-2.3-4.2,0-7.9c2.3-3.6,3.5-3,1-7.1c-2.4-4.2,2.4-8,5.3-8c2.9,0,7.3-2.2,7.3-4.4
			C600.1,355.9,601.1,349.9,602.8,353.2z"/>
		<path class="st1" d="M881.7,347.3c-4.2,0-6.5-0.6-9.2-4c-2.8-3.5-7.1-7.6-8.7-4.2c-1.6,3.4-3.7,5.1-9.1,2.9
			c-5.4-2.2-1.4-2.9-3.7-4.2c-2.3-1.3-1.5-5.4-2-6.9c-0.6-1.5-4.1-2.2-7.9-3.5c-3.9-1.2-2.4-1.7-5.2-2.1c-2.8-0.4-2.4-2.5-1.3-3.5
			c1.1-1,1.3-0.8-2.2-1.6s-2.4-3.3,0-3.7c2.4-0.3,5.7-1.2,5,1.9c-0.7,3-1.1,8.2,3.5,6.3c4.6-1.9,4.2-7.2,7.3-4.5
			c3.1,2.7,5,1.5,8.3,2.2c3.3,0.7-0.1,2.6,6.3,3.7c6.4,1.1,3.8,3.7,7.9,6.1c4.1,2.4,4.4,2.9,3.5,4.8c-0.9,1.9,4.1,7.6,6.5,8.6
			C882.9,346.8,881.7,347.3,881.7,347.3z"/>
		<path class="st1" d="M783.8,340.6c-7.7-2.9-7.4-3-13.2-3c-5.8,0-11.6-1-12.3-3c-0.6-2-1.1-2.5,0.9-2.9c2-0.4,0.5-1.6,5.3,0
			c4.8,1.6,5.7,3.4,7.6,1.7c1.9-1.7,5.3-0.8,6.7,1.3c1.3,2.1,1.7,2.3,4.2,3C785.4,338.5,789.7,342.8,783.8,340.6z"/>
		<path class="st1" d="M760,323.9c-0.2,3.8,1.7,6.3-1.6,6.3c-3.2,0-1.5-0.6-5.6-1.6s-3.5-6.4-4.7-8.9c-1.2-2.5-8.5-6.8-7.5-9.8
			c1-3-2.8-2.9-5.3-5.1c-2.5-2.2-2.5-4.2-3.9-5.9c-1.3-1.7-0.6-2.6,2.4-1.7c3,1,3.6-1,4.9,1.4c1.3,2.4,2.9,4.8,6.8,7.6
			c3.9,2.7,9.6,6.2,8.3,8.5c-1.3,2.3-1.7,2.6,1.3,3.1c3,0.6,0.6,2.1,2.6,3.2C759.8,322.1,760,322.3,760,323.9z"/>
		<path class="st1" d="M789.9,321.7c-3.3,2.9-4.6,5.5-7.2,3.1c-2.7-2.4-8.9-1-10.4-4.1c-1.4-3,1.8-1.1-1.4-3
			c-3.2-1.9-1.7-3.4-1.7-5.8c0-2.4,1.3-3.4,3.9-2.8c2.5,0.6,1.8,0.1,2.9-1.7c1.1-1.9-1.2-0.4,3.4-2.5c4.6-2.1,4.7-1.9,6.2-3.7
			c1.5-1.9,1.4-2.3,2.5-4.2c1.1-1.9,1.9-4.4,4.5-2.7c2.6,1.7-1,1.5,2.9,3.3c3.9,1.7-3,2.4-3,4.6c0,2.3,1.7,5.4,1.2,6.7
			c-0.5,1.2,1.4,1,1,2.5c-0.4,1.5-4.1,3.2-3.3,5.8C792.1,319.7,791,320.7,789.9,321.7z"/>
		<path class="st1" d="M809.5,329c-2.7,2.4-4.2-3.3-4.2-4.1s-1.7,0.3-1.7,3s-2.3,4.9-3.3,3c-1-1.9,0.9-3.6,0.1-5.2
			c-0.9-1.6-1.6-2-0.1-5.1c1.5-3.1-0.1-1.2,0.6-5.1c0.6-3.9-1.3-4.4,6.7-4.4c7.9,0,9-2,9-2s-0.7,5-4.6,5c-3.9,0-7.9-1.7-7.9,0.5
			c0,2.1-0.2,4.3,2.4,3.5c2.6-0.8,4.9-1,3,0.6c-1.9,1.7-5.4,0.4-3.2,3.3C808.4,325,810.8,327.9,809.5,329z"/>
		<path class="st1" d="M826.9,296.3c-3.5,0-6.8-0.6-9.4,0.6c-2.7,1.2-4.7-2.6-3.9-3.3c0.8-0.7,1.5-1.2-2.1-1.2c-3.6,0-7.5-2.5-2-2.5
			s5.9,0,7.9-1.7s5.3-0.6,3.5,2c-1.9,2.6-5.3,2.9-1.2,3.9C823.6,295.3,830.4,296.3,826.9,296.3z"/>
		<path class="st1" d="M982.7,85.6c-5.2-4.6-8.2-6.7-21.6-10.5c-13.4-3.9-16.4-6.7-19.5-3.9c-3.1,2.8,0.2,3.3,0.2,5.2
			s-1.7,1.5-16.2-2.6c-14.5-4.1-9.9,1.3-12.4-0.9c-2.5-2.2-5-4.3-12.2-4.3c-7.1,0-8.9-0.5-11.3-2.6c-2.4-2.1-6.7-4.2-13-1.8
			c-6.3,2.4-0.6-1.1-10.1-4.4c-9.4-3.3-9-3.1-12,4.4c-2.9,7.6-4.4,1.5-10.7-0.2c-6.3-1.7-8.6,1.3-10.5,6.1c-1.9,4.8-3-0.1-11.5-7.6
			c-8.5-7.5-11.1-2.6-18.3-4.3c-7.1-1.7-12-5-17.3-4.6c-5.3,0.4-6-1-8.2-3c-2.2-1.9,4.7-2.9,7-4.9c2.3-2-1.9-4.4-8.7-7
			c-6.8-2.6-7.6,1.8-10.3,1c-2.7-0.8-1.3-2.7-6.1-3.9c-4.8-1.2-2-2.8-3.4-4.8c-1.4-2,0.3-0.8,1.9-2.2c1.6-1.4-2.9-1.7-7.3-4.2
			c-4.4-2.5-1.6,1.7-3.9,3.7c-2.3,2-1.7-1.1-1.2-3c0.5-1.9-1.9-2.4-5.2-5.4c-3.3-2.9-8-3.8-10.9-1.3c-2.9,2.5-7.8,4.5-6.4,6.7
			c1.4,2.1,5.2,0.6,13.9,1.3c8.7,0.6,6.1,0.6,7,2.4c0.9,1.9-1.6,3,4.1,2.5c5.7-0.5,7.9,1.1,4.1,2.9c-3.8,1.8-4.9,3.4-11.9,6.5
			c-6.9,3-19.2,1.2-22.2,2.1c-3,0.9-6.6,1.5-7.2,4.9c-0.6,3.4-6.7,5-12.7,5s-6.3,3.3-6.3,5.4c0,2-1.8,3-9.1,4.3
			c-7.3,1.2-4.7-4.2-7.6-2.6c-2.8,1.6-3,4.5-3.9,7.6s0.8,5.7-0.1,6.5c-0.9,0.8-2.8-2.6-3.8-7.4c-0.9-4.8,1.6-5.6,1.2-8.7
			c-0.4-3-3-3.2-6.3-1.3c-3.3,1.9-7.5,6.9-9.9,10.5c-2.4,3.6,1.3,5.6,4.8,8.7c3.5,3.1-2.5,2.1-5.5,0.6c-2.9-1.6-7.9-4-12.3-4.5
			c-4.4-0.6-4.1-2.5-9.1-4.3c-5-1.8-6-1.9-8.8-7.3c-2.8-5.4,5.9-9.9,12.1-13.4c6.2-3.5,17.9-3.5,20.8-6c2.9-2.5-0.5-4.1-6.3-1.6
			c-5.8,2.6-7,0-20.6,4.5c-13.5,4.5-12,10.2-14.6,13.7c-2.6,3.5-5.7,5.2,1.5,7.3c7.1,2.1,7,3.3,11,3.3c4,0,4.6,3.3,7,3.8
			c2.4,0.5,0.6,1.9,0.6,4c0,2-8.6,1.9-14.1,1.9c-5.5,0-5.9-1.7-10-0.5c-4.1,1.2-9.3,3.9-9.3,6.1c0,2.2-3,2.8-4.7,2.1
			c-1.7-0.6-0.7-2.3,2.2-4.9c2.9-2.6-4.4-3.5-6.6-3.5c-2.2,0-1.7,4.2-1.7,6.8c0,2.6-1.3,3.1-5.6,3.1c-4.3,0-3.2,3.2-8.8,4.9
			c-5.6,1.7-3.2,1.9-1.6,4.3c1.7,2.4-4.1,1.4-6.7-0.8c-2.6-2.3-1.6-3.2-1.6-5.8c0-2.6-6.2-3.4-6.2-5.3c0-1.8,9.5,2.5,14.5,2.9
			c4.9,0.4,5-1.6,7.2-4.5c2.2-3-2.2-4.3-6.8-7.1c-4.6-2.8-18-4.4-24.8-9.1c-6.7-4.6-8.2-2.8-15.5-0.3c-7.3,2.5-10,3.4-15.9,7.7
			c-6,4.3-2.7,6.3-8,10.1c-5.2,3.8-6.2,8.6-12.1,11.5c-5.9,3-4.6,5-9.5,6.1c-4.9,1.1-2.2,1.4-4.4,4.9c-2.2,3.5-2.6,3.7-1.6,4.6
			c1,0.9,0.1,3.2,1.9,4.8c1.8,1.6-2.1,4.6,0.7,5.8c2.8,1.2,2.8-1.2,8.2-2.6c5.3-1.4,4-5.1,4.3-4.8c0.3,0.3,1,5.4,1,7.1
			c0,1.8,2.7,3.4,2.7,5.6c0,2.2,0.3,3.9,4.9,3.9c4.6,0,1.2-2.7,3.4-3.5c2.2-0.8,4.5-1.7,4.9-5.3c0.4-3.6,3-4.3,5.5-7.6
			c2.4-3.3-4.7-3.1-5.5-8.7c-0.7-5.5,4.4-8,9-10.4c4.6-2.4,2.2-4.6,6.8-7.3c4.6-2.7,6.3,0.3,7,2.1c0.7,1.8-3.6,6.5-7.9,8.8
			c-4.3,2.3-3.9,5.7-1.4,7.9c2.6,2.3,1.8,3.3,4.2,5.5c2.4,2.1,5.3-0.8,10-3.7c4.6-2.9,1.4,0.6,6,2.2c4.6,1.6,3.6,0.9-0.1,2.2
			c-3.7,1.3-10.9,2.9-14.9,2.9s0.1,2.1,0.1,5.6c0,3.5-0.8,0.7-5.6,1.3c-4.8,0.6-3.9,8.2-2.5,10.7s-1.6,1.6-5.3,1.6
			c-3.8,0-6.3,2.6-10.5,2.2c-4.2-0.3-5-2.3-10.5-0.6c-5.4,1.7-4.8-2.2-3.9-5.7c0.9-3.5,1.7-7,0.7-9.1c-1-2.1-1.2,3.4-3.5,6.5
			c-2.3,3.1-1.4,4.7-0.7,7.5c0.7,2.8-1.4,2.3-4.6,3c-3.1,0.8-5.6,0.6-7.4,4.2c-1.8,3.6-3.5,3.3-7.2,4.3c-3.6,1-1.4,4.6-5.1,6
			c-3.7,1.4-4.3,0.1-5.9,2.7c-1.6,2.6-6.3-0.5-7.8,2.5c-1.5,3,4.4,3,8.7,5.9c4.3,2.8,3.3,6.4,2.2,10c-1.1,3.6-3.1,1-11.2-0.8
			c-8.1-1.9-13.9,1.6-10.6,6.5c3.3,4.9-1.3,3.1-1.3,8.7c0,5.5,0.9,7.4,4.9,7.4c4,0,5,1.9,9.4,1.6c4.4-0.3,4.5-0.3,8.2-6.6
			c3.7-6.3,4.2-5.5,10.4-9.6c6.2-4.1,4.6-2.9,1.8-5.4c-2.8-2.5,2.1-2.4,4.8-1c2.7,1.4,6.9,1.5,7.9-1.2c1-2.7,2.5-2.9,4.4-1.2
			c1.9,1.7,3,3.7,3.5,5.5c0.5,1.8,4.3,4.2,7.7,5.5c3.4,1.2,5.3,2.5,6.1,5.3c0.8,2.8-1,4-2,4.9c-1.1,0.9-2.4-0.1-5.4-0.1
			c-3.1,0,1.2,3,2.7,3.4c1.5,0.3,2.8-2.3,2.8-2.6s1,0.3,2.1-0.1c1.1-0.3,2-1.7,2.7-3.6c0.7-1.9-0.9-3.2-0.9-4.4
			c0-1.2,1.7-0.8,2.6,0.1c0.9,0.8,4.1,0.7,2.2-0.9c-1.9-1.6-5.3-3.4-10.7-6.9c-5.4-3.5-5-4.2-6-8.3s2-2.7,4.6-2.7s3.1,3.2,3.5,6.2
			c0.4,3,6.2,3.5,10.9,6c4.7,2.4,3.4,2.6,2.6,4.4c-0.8,1.7-1.3,4.3,2.3,7.4c3.5,3.1,0.4,4.2,2.3,5.9c1.9,1.7,3.4-1.4,6.5-4.1
			c3-2.7-0.4-2.8-2.8-5c-2.5-2.2-0.6-3.1,2-4c2.7-0.9,3.9-0.1,7.3,0.7c3.4,0.8,5.8-0.7,6.4-1.2c0.7-0.6,0.9-2.7-1.6-6
			c-2.5-3.3,3.6-9.3,6.3-13.1c2.7-3.8,6.5,0.3,8.5,2.1c2,1.8-0.4,1.8,1.3,3.4c1.8,1.6,5.5,0.3,7.2-1.2c1.7-1.5-5.5-2-6.7-3
			c-1.1-1,10.5-3.3,15.3-4.8c4.8-1.5-1.2,2.8-2.6,4.8c-1.4,2-4.6,3.5,2.8,7.7c7.3,4.2,5.8,5.8,5.3,8.1c-0.5,2.3-7.6,3-12.8-0.1
			c-5.3-3.2-11.2-1.3-13.4-0.3c-2.3,1-6.5,3.9-11.3,4.6c-4.8,0.8-2.3,2.9-2.3,5c0,2.1,1.2,4.8,3.1,6.5c1.9,1.7,5,2.6,6.1,0.6
			c1-1.9,3.9-0.1,5,0.8c1.1,1,3.5,3.1,6.8,0.3c3.2-2.8,3.3-2,2.9,0.5c-0.4,2.5,2.8,3.3,4.2,6c1.4,2.7-6.6,4-5.7,7.8
			c0.9,3.8,0,3.6-6.4,2.8c-6.4-0.8-10.5,0.4-16.4,0c-5.9-0.4-8.3-2.2-15.1-5.1c-6.8-2.9-5.9,3.5-4.9,5.9c1,2.4-2.2,3.5-8.1,0.3
			c-5.9-3.3-8.9-4.1-12.5-6.2c-3.6-2.1-5.3-5.4-4.2-8.5c1.1-3,0.2-6.1-5.5-5.1c-5.7,1-13.1-1.8-18.5-0.5c-5.3,1.3-10,4.4-13.4,5.2
			c-3.5,0.8-5,0.1-8.1-0.8c-3.1-1-2.8,4.2-7.2,6.9c-4.4,2.8-6.1,5.1-4.8,9.1c1.3,4-2.7,7.1-7.9,10.2c-5.2,3-8.1,11.4-11.7,16.1
			c-3.6,4.6,1.4,8.6,1.4,14.3c0,5.8-5.7,11.1,0.8,16.8c6.5,5.7,2.1,9.6,8.2,13.9c6.1,4.3,7.9,7.3,11.5,9.1c3.5,1.7,5.7,2.8,10.8-0.5
			c5.2-3.3,11.5-0.9,16.4-3.8c4.9-2.9,8-1.6,12.3,1.4c4.3,3,1.7,4,4.9,2.5c3.2-1.5,5,1.5,7.3,5.3c2.4,3.9,0.1,2.8-1.9,7.7
			c-2,4.8-0.8,6.2,4.3,10.7c5.1,4.5,1.6,6,6.1,12.7c4.4,6.7,3.3,13.2,2,16.9c-1.3,3.7-5,6.7-5,12.3c0,5.6,7.2,13.8,7.8,20.2
			c0.6,6.4,2.5,15.2,5.3,18.6c2.8,3.4,4.2,4.7,4.2,10.7c0,6-1.8,8,7.1,7.3c8.9-0.6,5.9-2.6,9.4-2.3c3.5,0.3,4.6,2.3,13.5-5.5
			c8.9-7.8,9.2-13.2,9.8-18.5c0.5-5.3,6.2-4,7.1-5.4c0.9-1.5,2.2-7.6-0.4-9.8c-2.6-2.3-1.6-4.1,1.5-8.2c3.1-4.1,9.8-5.1,12.7-10.3
			c2.9-5.3,3.9-13.7,0.9-17.2c-2.9-3.5-2.6-8.9-3.5-15c-0.9-6,4.1-10.1,9.6-13.4c5.5-3.3,12.5-9.8,16-17.1c3.5-7.3,11-15.1,11-18.2
			s-2.8-2.4-8.1-0.8c-5.3,1.6-6.6,2.6-11.6,2.6c-5,0-2.5-1.5-5.3-6c-2.8-4.5-7.2-7-7.8-8.9c-0.6-1.9-0.2-4.4-3.7-8
			c-3.5-3.6-2.9-4.6-3.6-9c-0.7-4.4-4.6-4.7-4.6-9.9c0-5.2-5.7-10.1-6.8-13.4c-1.1-3.3,4.6,0.6,6.4,3.5c1.7,2.8,6.5,6.8,8.6,11.1
			c2,4.3-0.6,3.4,1.7,6.9c2.3,3.5,4.8,7.8,7.4,10.9c2.6,3.2,3.1,10.7,4.3,13.7c1.2,3,2.4,1.8,5,0.7c2.5-1.1,13.7-3.1,17.1-6.1
			c3.4-3,4-3.9,6.6-5.4c2.6-1.5,7.7-2.5,10.2-5.5c2.5-3,5.7-6.4,5.7-10.3c0-3.8-4.8-5.1-8.2-8.1c-3.4-3-3.9,1.1-9.3,2.5
			c-5.4,1.4-4.6-3-8.1-3c-3.5,0,0.6-4.6-1.2-7.5c-1.8-2.9-7.2-5.5-6.1-8.8s4.6-1.7,6.8-0.7c2.3,1,4.5,6,5.7,8.2
			c1.3,2.2,5.2,3.9,10.2,2.1c5-1.9,3.2,3.1,7,4.2c3.8,1.1,8.6,3.5,15.3,1.7c6.8-1.8,8.3-1.2,9,1.2c0.7,2.5,6.1,3.7,8.1,5.5
			c2,1.8-1.5,2.6-1.5,3.9c0,1.3,2.3,4.4,5.1,3.1c2.8-1.3,2.4-4.3,2.4-4.3s1.2,2.6,1.2,5.8c0,3.3-0.6,7.7,1.7,12.4
			c2.4,4.7,1.1,6,3.1,9.7c2.1,3.7,3.1,5.6,5.7,11.6c2.5,6,3.2,3.4,5.6,1.3c2.4-2.1,1.6-2.6,2-7.1c0.5-4.4,4.6-1.6,5.4-5.7
			c0.8-4.1-1.3-5.2-0.6-9.4c0.8-4.2,6.7-4.1,11.6-8.4c4.9-4.3,6.1-4.1,7.3-7.9c1.2-3.8,2.2,0.7,6.3-0.7c4.1-1.4,3.1-3.4,4.5-2.2
			c1.4,1.2,1.2,3.2,3.9,5.6c2.8,2.4,2.7,4,3.8,7.8c1.1,3.7,0,6.8,2.2,5.5c2.2-1.2,3-3.4,5-1.7c2,1.8,3.5,4.7,4.9,10.5
			c1.3,5.8,2,7.1,0.5,10.9c-1.5,3.7,0.3,5.4,3.4,8.2c3.1,2.7,2.2,5.1,1.7,8.7c-0.6,3.5,1.8,4.1,2.4,5.4c0.6,1.3,3.6,2.4,6.5,2.1
			c2.9-0.3,0.2-1.5-0.7-4.2c0,0,0.1-2.7-0.7-4.9c-0.8-2.2-6.2-7.5-8.2-11.3c-2-3.8,0-4.5-1.2-10.1c-1.3-5.5,2.6-3.8,3.8-1.9
			c1.2,1.8,4.3,3.2,7.3,5.9c3,2.7,1.2,4.2,2.6,5.4c1.4,1.2,3.1-1.7,7.8-4.1c4.6-2.5,6.1-4.8,3.9-10.3s-5.1-8.9-10.2-13.4
			c-5.1-4.5,2.3-6.5,4.5-8.5c2.3-2,6.2,1.5,8.8-0.8c2.6-2.3,7.8-2.1,12.3-4.4c4.5-2.3,4.5-5.4,11.9-9.6c7.3-4.3,11.5-11.1,8.3-17.2
			c-3.3-6.2-3.6-11.1-5.8-14.5c-2.2-3.4,3.5-3.2,8.1-7.3c4.6-4.1-5.9-1.9-11.1-0.5c-5.2,1.5-5.6-2.5-1.4-6.3c4.2-3.7,9-5.1,8.4-3.1
			c-0.6,1.9,2.5,3.6,6.2,2.1c3.7-1.5,6.1,0.4,4.1,3c-2,2.7-0.2,3.1,3.9,5.3c4.1,2.1-0.8,3.7-2.2,7.2c-1.4,3.5,5.8,2.2,9-0.6
			c3.2-2.8,1.8-5.7-0.4-7.7c-2.3-2-1.6-5.3-3.7-9.5c-2.1-4.3,5.1-6,10.2-9.6c5-3.6,5.3,2.5,8.6,0.8c3.3-1.7,8.6-9.6,12.3-14.6
			c3.7-5,2.7-10.5,5.8-16.5c3-6-0.6-5.9-5-7.1c-4.4-1.2-8.5-3.1-5.3-7.3c3.1-4.2,14.6-17.2,23-18.7c8.4-1.6,10.6,0.6,14.4,0.6
			s3.4,3.6,11,3c7.7-0.6,4.6-7.2,11.5-11.7c6.9-4.5,2.9,4.6,7.5,5c4.5,0.4,10.9-5,10.9-3c0,2-4.1,2.8-6.7,5.1
			c-2.6,2.3-8.1,7.2-13.9,12.3c-5.8,5.1-4.6,6.6-2.8,14.4c1.8,7.9,0,9.6,3.6,8.5c3.6-1.1,10.8-9.2,13.1-16.6
			c2.3-7.4,1.7-8.2,1.7-14.9c0-6.7,1.7-2,8.6-2c6.9,0,6.7-3.3,8.4,0.2c1.7,3.5,3.7,0.3,11.5-6.7s14.4-1.4,17-3.7
			c2.6-2.3-7.6-7.8-4.8-7.8c2.7,0,13-2.6,15.7-2.6c2.7,0,3.6,2.8,8.8,3.7s8.8-1.3,8.8-3.9S987.9,90.2,982.7,85.6z M617.9,170.2
			c-3.1,1-5.7-1.9-7.6,1c-1.9,3-4.3,5,0.7,7c5,2,1,1,4.4,4c3.4,3,2,4.2,0.1,4.6c-1.9,0.5-5-0.4-1.5,2.7c3.5,3.1,3.9,5.4,2.5,7.4
			c-1.4,1.9-1,3.1-5.9,2c-4.8-1.1-12-2.5-9.1-6.1c2.8-3.6,6.9-5.2,3.7-8c-3.2-2.8-6.4-5.7-6.9-9.6c-0.5-3.9-3.8-6.7,2.8-9.7
			c6.6-3,10.3-4.9,13.3-1.1C616.7,167.1,621,169.2,617.9,170.2z"/>
		<path class="st1" d="M690.9,284.7c-2.5,2.2-5.1,8-0.8,9.9c4.3,1.8,6.8,0.3,5.7-1.8C694.5,290.6,690.9,284.7,690.9,284.7z"/>
		<path class="st1" d="M803.8,258.7c-3,5.7-4.1,12.9,0,12.9c4.1,0,0.2-3.6,3.5-6.4C810.5,262.3,805.8,254.9,803.8,258.7z"/>
		<path class="st1" d="M771.4,253.6c-5.1,2.3-4.9,5.6-1.9,5.6c3,0,3.2-1.9,5.1-3.6S774,252.4,771.4,253.6z"/>
		<path class="st1" d="M806.7,236.5c-2.8,3.6-5,5.5-5,7.9c0,2.3,2.4,2.2,4-0.3c1.6-2.5,0.1-3.2,1.7-4.6
			C808.9,238.1,809.9,232.4,806.7,236.5z"/>
		<path class="st1" d="M843.3,203.7c-11.3,5.3-13.6,5.3-13.6,8.6c0,3.3,0.8,3.6,2.2,4.9c1.4,1.2,1.9-7.6,3.9-5.8
			c2,1.8,3.3,2.4,5.6,0.4c2.3-2,3.5-2.1,4.5-1.2c1,0.8-0.9-2.9,2.6-2.9s4.2,3,7.1-0.9c2.9-3.9,2.4-7.4,4.5-11.5
			c2.1-4.2,4.9-3.8,3.9-7.4c-1-3.6-3-4.8-0.7-5.5c2.3-0.7,3.6-3,6.2-3s8.7-0.4,7.8-1.2c-0.9-0.8-6.1-0.1-6.9-1.6
			c-0.8-1.5-2.8-0.2-4.3-2.2c-1.5-2-4.6-2.7-3.1-5c1.5-2.3-2-0.8-2,3.8s0.1,5-1.7,6.6c-1.7,1.5,3.1,5.5-0.7,11.7
			c-3.9,6.3-5.5,6.4-8.4,9S843.3,203.7,843.3,203.7z"/>
		<path class="st1" d="M864.3,164.7c-0.6-2.8-1.2-8.3-0.1-9.2c1.1-1,2.8,1.8,3.8,0.9c0.9-0.8-2.3-2.3-2.3-5.5c0-3.1,1.7-8,0.5-9.9
			c-1.2-1.8-1.7-4.6-2.7-0.9c-1,3.7-1.2,4.2-1.2,7.7s-0.5,7.1-0.5,12.1S865,167.8,864.3,164.7z"/>
		<path class="st1" d="M461.9,121.7c-3.4,5.2-3.9,7.7-0.4,10.8s2.6,7.1,6.4,8.6c3.8,1.5,6.8-0.6,2.7,3.1s1.4,2.8-2,4.4
			c-3.4,1.5-2.8-1.7-6.9,0.3c-4.1,2.1-7.4,0.5-9.4,2.1c-1.9,1.7-0.1-2.4,2.5-3.6c2.6-1.2,9-1.3,4.8-1.3c-4.2,0-8,0.4-7.3-1.6
			c0.7-2,2.5-2.4,2.5-4c0-1.6,3.4,0.6,3.4-1.9c0-2.5,2.5-3.8-1.4-4.5c-3.9-0.7-3.5-2.6-2.9-3.9c0.6-1.2,1.6-1.6-1.6-2.9
			c-3.1-1.3-3.2-1.1-1.7-3.9c1.6-2.8-0.9-1.8-2.5-1.8c-1.7,0-0.6-3.2,0.5-3.2s-0.5,3.5,2.7,1.6c3.1-1.9,5.3-4.8,6.7-4.8
			s-0.4,3.4-0.9,4.8C456.6,121.6,462.8,120.3,461.9,121.7z"/>
		<path class="st1" d="M445.7,132.4c-3.3,1.6-4,2.8-5.4,4.6c-1.4,1.8,1.5,1.1,0,4.2c-1.5,3.1-4.3,4.8-2.2,5.7c2.1,0.8,6.3-1.7,8.8-3
			c2.5-1.3,2.3-3.2,2.3-5.3c0-2.1,2.7-1.5,1.6-3.9C449.6,132.2,448,131.3,445.7,132.4z"/>
		<path class="st1" d="M491.4,178.6c-3.4,1.6-0.3,3.4-0.6,4.8c-0.3,1.4-1.5,8.5,0.3,7.5c1.7-1.1,4.7-3.9,3.5-5.4
			c-1.2-1.5-2.6-0.2-1.6-2.5C493.9,180.7,493.6,177.5,491.4,178.6z"/>
		<path class="st1" d="M298.8,479.4c4.5,0,7.9,1.2,4.3,3.2c-3.5,1.9-5.8,0.6-7.3,0.6C294.3,483.2,296.1,479.4,298.8,479.4z"/>
		<path class="st1" d="M278.4,472.9c-4,3.5-6.8,3-5.3,5.8c1.6,2.8,1.2,3.3,0.7,4.3s1.2,1.3,1.7,3.6c0.6,2.3,0.4,3.6,3.4,4.1
			c3,0.5,8.1-0.2,5.3,1.2c-2.8,1.5-6.4-0.2-7.6,2.6c-1.2,2.8-2.6,1.4-8.5-0.3c-5.9-1.7-7.1-7.2-7.1-8.9c0-1.7-0.3-2.5-1.7-3.7
			c-1.4-1.2-5.7-4.3-2-4.6c3.6-0.3,4.8-2,3-5.1c-1.8-3.1,1.7-5.8-0.8-7.1c-2.5-1.3-5.2-2.5-2.3-2.5c2.9,0,2.7,1,4.2-1.9
			c1.6-2.9,0.6-6.2,1.5-9.4c0.9-3.1,2-4.3,0.4-5.7s-2.1-1.6-0.9-5.8c1.2-4.2,0.6-3.9,0.6-7.2s1.3-7.7,3.1-11.4
			c1.9-3.7,3.1-7.5,2.7-11.8c-0.5-4.3-1.7-4.1-0.2-8.7c1.4-4.6,2.9-21.5,2.9-26.4c0-4.8-2.6-8.7-6-9.5c-3.4-0.8-8.7-2.2-10.9-7.8
			c-2.2-5.6-1.3-7.5-3.7-11.2c-2.4-3.7-2.6-8.2-6.7-10.3c-4.1-2.1-6.2-7.5-4.4-9.1c1.8-1.6,3.9-2.6,2.7-3.7c-1.3-1.1-3.1-3.3-0.5-7
			c2.6-3.7,3.6-9.1,6-11.2c2.4-2.1,2.7-5.4,2.7-7c0-1.6-0.9-4.1-0.9-4.9c0-0.8-1.3-2.4-1.8-3.8c-0.6-1.5-1.9-2.9-2.7-2.2
			c-0.7,0.7-2.5,2.1-2.5,3.7c0,1.6-2.7-0.1-3.5-0.8c-0.8-0.7-4.9,0.3-5.8-2.2c-0.9-2.5-4.2-3.1-5.7-3.5c-1.5-0.4-0.3-3.6-1.4-5.6
			c-1.1-2-2.9-6.5-6.3-5.9c-3.4,0.6-7.2-1-10.4-3.9c-3.2-2.8-6.7-4.5-10.8-3.7c-4.1,0.8-7-0.5-12.7-3.3c-5.7-2.8-14.5-6.4-13.9-9.7
			c0.6-3.3,1-7.6-3-11.1c-4-3.5-8.2-10.3-11.4-13.6c-3.2-3.4-5.5-6.7-7-9.1c-1.5-2.4-1.6-4.2-4-3c-2.4,1.2-1.6,3.4,0.4,5.8
			c2,2.4,9.5,15.4,11.5,18.2c2,2.8,2.4,4.2,0.6,3.4c-1.8-0.8-2.6-3-4.4-4.6c-1.8-1.6-0.8-2.5-2.4-5.3c-1.7-2.8-5.5-3-5.5-5.9
			c0-2.8-0.9-5.9-1.6-6.6c-0.8-0.7-5-2.4-5-6c0-3.6-3.5-6.2-6.5-7.3c-3.1-1.2-5-3.9-6.8-8.2c-1.9-4.2-7.4-7.6-5.8-12.7
			c1.6-5.1-3.1-8.2-1.1-12.6c2-4.4,2.2-11.2,0-13.2s2.6-2.1,4.3-1.4c1.7,0.8,1.9,4.1,2.8,2.3c0.9-1.8,0.8-1-2.2-4.7
			c-3-3.7-6.9-7.5-7.8-6.7c-0.9,0.8-2.9,0.5,0,3c2.9,2.5,6.4,3.8,6.1,4.1c-0.4,0.3-5.4-0.5-6.5-1.5c-1.1-1-2.1-2.1-5-2.8
			c-2.8-0.7-1,0.4-1-3.6c0-4-2-4.8-3.7-6.4c-1.7-1.5-4.1-6.7-4.1-7.6c0-0.9-5.8-6-10-8.5c-4.2-2.4-3.9-0.1-6.7-3.7
			c-2.8-3.5-1.4-2.8-5.7-4.7c-4.3-1.9-4.8-4.2-10.6-4.2c-5.8,0-11-5.3-13.5-5.3c-2.4,0-4.1-0.5-3.5,2c0.6,2.5,0.6,1.6-3.8,3.3
			c-4.3,1.7-7.1,1.5-6.2-0.2c0.9-1.7,3.9-5.2,5.4-5.2s3.5-1.8-1.2-1.8s-4.7,4.1-8,5.8c-3.3,1.7-3.9,2.8-2.9,3.6
			c0.9,0.8,1.8,0.9-0.2,2.6c-1.9,1.7-6.5,6.8-12.7,10c-6.2,3.3-15.7,6.5-15.7,6.5s8.6-5.4,12-7.1c3.4-1.7,5.4-4,7.1-6.7
			c1.7-2.7,2.1-2.9,1.5-3.5c-0.6-0.5-3-0.3-6.1-0.3c-3.1,0-3.1-2.4-5.3-1.1c-2.2,1.3-2.4-0.2-2.8-2.8c-0.4-2.6-0.6-0.3-3.9-0.3
			c-3.3,0-1.9-4.4-4.6-6.1c-2.8-1.7-0.9-1.9,1.7-4.2c2.6-2.3-3.1-5.3,3.2-3.3c6.3,2,7.8-0.4,6.7-2.2c-1.1-1.8,1.3-5.5-2-4.5
			c-3.4,1-2-0.4-5.9,0.5c-3.9,0.9-7.1,0.7-7.7-1c-0.6-1.7-2.9-3.7,0-4.8c2.9-1.1,4.1-3.7,7-1.2c2.9,2.6,5.2,2.7,6.5,2.1
			c1.3-0.6,1.4-2.9,0.2-3.9c-1.2-1-1.4-1.5-3.9-1.5c-2.4,0-1.7-1.5-4.6-2.9C4,78-3.4,76.1,3.4,75.5c6.8-0.6,7,0.3,9.1-1.6
			c2.1-1.9,1.7-5.5,6.3-6.9c4.6-1.3,7.1-0.6,9.2-2.5c2.1-1.9,1.4-2,5.1,0.6c3.7,2.6,5.9,0.4,9.4,1.9c3.5,1.5,5.8-1.8,7.6-0.3
			c1.8,1.6,9.7,2,13.5,1.1c3.9-0.9,11.9,1.2,17.4,4c5.5,2.8,4.4,1.8,9.9,0.2c5.5-1.6,9.4-2.4,11-3.2s1.1,2.1,3.4,0.1
			c2.3-2,2.7-3.7,2.7-4.2s2.5-2.3,5.3,1.7c2.8,4,5.1,7.4,7.2,5.5s1.9-2.4,9.7-0.1c7.8,2.4,4.3-5.4-0.3-6.7c-4.6-1.3-2.8,2.8-7.2-1.1
			c-4.5-3.9-2.7-6.2-2.7-10c0-3.8,3.3-5,8.2-6.5c4.9-1.5,11.3-4.1,4.8-4.5c-6.5-0.5-10.8-0.5-10.8-1.9c0-1.5,6.8-5.7,9.2-6.5
			c2.4-0.7,12.4-3.9,14-3.9c1.6,0,2.1,2.9,1.4,4.2c-0.7,1.4,2.9,0.9,3.7-1.4c0.7-2.3,1.9-6.7,5.8-7.3c3.9-0.6,4.5,0.2,4.5,4.4
			c0,4.2,1.3,5.2,5.5,6.8c4.2,1.7,5.8-1.4,4.6,2.4c-1.2,3.8,2,5.5-5,6c-7,0.6-10.6,0.9-13.3,3.2c-2.7,2.4-7.2-3-9.8-1.8
			c-2.6,1.3-1.8,2.2,2.7,3.1c4.5,1,4.6-0.9,5.8,2.8c1.2,3.7,2.5,4.2,3.7,2.2c1.2-2,6.1,0.8,7.7-0.6c1.6-1.4,2-4.8,5.5-1.8
			c3.5,3,1.2,4.5,5.7,8.5c4.5,4,10.5,2.4,10.5,6.2c0,3.8-0.5,7-5.6,7s-9.1-3-9.9-1.7c-0.7,1.4,5.5,1.7,4.5,4.2
			c-0.9,2.5,3.8,2.5,8.2,2.5c4.4,0,9.1,1.5,9.1-0.3s-5.1-3.1-1.6-6.2c3.5-3.1,6.9-3.8,8.2-3.8c1.3,0-1.9-1.5,1.2-5
			c3-3.5,3.6-4.5,2.4-5.5c-1.2-1.1-0.4-0.9-5.6,1.8c-5.1,2.7-8.7,1.3-10.8-0.6c-2.2-1.9-6.1,0.4-4.8-2c1.3-2.4,7.2-0.8,6.2-2.7
			c-1-1.8-7.3-1.1-2.5-3.4c4.8-2.3,8-1.8,9.8-2.5c1.8-0.6,0,2.2,2.1,4.1c2.1,1.8,5.1,3.1,5.1,0.7c0-2.4-2.8-4.9,1.7-4.9
			s7.8,1.3,7.3-1c-0.4-2.3-0.9-5.2-3.4-3c-2.5,2.2-1.9,1.9-5.6,1.4c-3.7-0.6-1.6-1.8-7.6-1c-6,0.7-5.9-2.4-9.4-2.4
			c-3.6,0-8,0.6-8-0.9c0-1.6-3.7-5.6,1.7-5.6s10.4-0.2,12.5-0.2c2.1,0,0.3,3.3,4.1,4.1c3.8,0.7,5.1,3.5,6,1.1s0.9-2.2-0.4-3.4
			c-1.4-1.2,1.3-3.7-0.8-4.7s-4.8-1.9-9.5-1.9s-5.3-2.3-9.5-2.7c-4.2-0.4-8.4-1.4-7.4-2.3c1-0.9,0.7-1.5,6.1-0.4
			c5.3,1.1,10.1,2.8,12.2,2.8c2.1,0-1.7-2,1.9-2s7.6,2.4,10.7,3.3c3.1,0.9,3.6,2.9,6.1,5.1s4.3,3.5,7.6,2.3c3.3-1.2,3.6-1.8,5.1-4.3
			c1.6-2.5,0.6-2.6,0.6-4.4c0-1.8-2.7,0.9-8.1,1.4c-5.3,0.5-3.4-2.2-6.4-3.8c-3-1.6-5.2-3-5.2-5.5s4.1-3.4-0.9-5.5
			c-5-2.1,5.2-3.7,7.4-1.8c2.2,1.9,4.5,4.8,4.5,1.8s-1.6-3.9,1.4-4.2c2.9-0.4,2.6-1.1,8.4-1.1c5.8,0,3.5-3.9,8.9-2.7
			c5.5,1.2,4.9,3,8.6,1.1c3.7-1.9,7.3,0.5,11.4-1.6s6.7-0.1,11-1c4.3-0.9,1.5-2,10.5-2c9,0,13.8,0.4,16.8,1.3c2.9,0.9,7,1.5,5.8,2.6
			c-1.2,1.1-9.9,3.1-9.9,5s-5.3,3-11.2,5c-5.9,1.9-11.7,4.6-13.7,6.4c-2,1.8-0.4,3.2-4.3,5.5c-3.9,2.2-7.5,2.4-9,3.8
			c-1.5,1.3,0.8,2.2,0.8,3.3c0,1.1-2.9,2.2-3.9,3c-1,0.9-0.6-0.6-5.5-1.4c-4.8-0.8-5.6-1.4-9.8,0c-4.2,1.4-6.2,0.9-10.1,0.9
			c-3.9,0-7.2,1.8-2.8,2.5c4.4,0.6,3.7,2.2,11.2,0.6c7.6-1.6,12.1-2.7,14.6-0.6c2.5,2.2,1.2,3.6-0.1,4.7s-11.4,0.9-19.3,1.7
			c-7.9,0.7-11.2,0.7-9.2,2.5c2,1.8-0.6,4-2.7,4.9c-2.1,0.9-7.4,0.2-7.4,2s-0.7,4,3,5.2c3.8,1.2,7.7,2.8,6,5
			c-1.7,2.2,0.6,4.2,2.1,7.2c1.5,3,3.4,1,3.4-1.1c0-2.1,2-3.8,2-0.5c0,3.3-1.5,6.7,1,7.8c2.5,1,4.7-2.4,6.2-5.5
			c1.5-3.1,3.3-4.7,1.6-6.2c-1.7-1.5-3.7-2.3-8-4.7c-4.3-2.4-8.4-1.3-5-5.8c3.4-4.5,3.5-8.8,7.3-8.8c3.9,0,10.6,0.4,10.6,0.4
			s6-0.2,10.2-0.7c4.2-0.6,7.9,0.9,7.9,2.6c0,1.7-4.9,2.9,0.4,4.2c5.3,1.3,8.1-0.6,9.1,1.9c1,2.6-2.1,3.7,4.5,4.3
			c6.6,0.6,11.4,0,12.1,5.4c0.6,5.4-6.2,5.5-3.1,8.2c3.1,2.7,11-0.6,14.2,3c3.1,3.6,8.5,0.2,7.1,3.5c-1.4,3.3-4.7,5.2-5.3,6.9
			s-1.2,3-4.5,0c-3.4-3-6.8-6.3-7.6-3.8c-0.7,2.5,2.7,4.1,4.5,5.6s5,3.1,1.5,3.9c-3.6,0.7-11.5-1.9-10.3,0.6c1.3,2.5,9,6.1,9.9,6.8
			c0.9,0.8-8.9-1.6-12.3-0.8c-3.4,0.7-5.1,1.4-7.1-2.1c-2-3.5-1.5-5.1-7.6-3.9c-6.1,1.2-7.1,0.9-7.1-0.1s0.7-4.3,4.9-4
			c4.2,0.4,12.5,3.4,7.9-0.6c-4.6-4.1-6.1-3.1-2.3-6.5c3.8-3.4,3.8-7.6,1.8-9.4c-2-1.8-2.5,2.3-4.9-1.9c-2.4-4.2-1.9-6.6-7.7-7.1
			c-5.8-0.6-3.6,1.7-8.7,1.7c-5.1,0-7.3-0.8-4.4,1.8c2.9,2.5-3.4,6.1,1.6,8.4c4.9,2.3,7,2.8,1.6,5c-5.5,2.2-10,1.7-9.1,3.9
			c0.8,2.2-0.6,4,4.6,5.5c5.2,1.6,7.6,3.2,5.6,4.2c-2,0.9-6.1-2.4-8.2-0.6c-2,1.8-4.7,4.1-5.6,2.1c-0.8-1.9,1.3-2.9,1.3-5.2
			c0-2.3,1.2-5.9-0.5-5.9c-1.7,0-0.9,0.6-4,3.2c-3,2.7-4.9,2.7-8.8,6.2c-3.9,3.5-4.1,3.9-8.5,6.7c-4.4,2.9-6.7,6.5-5,10.2
			c1.7,3.7,2.6,1.5,4.9,3.6c2.4,2.1-3.1,5.6,4.6,5.6c7.8,0,10.1,6.3,17.2,8s9.7-0.1,9.7,3.1c0,3.2,2.2,18.5,6.1,12.9
			c3.9-5.5,3-7.2,1.6-10.5c-1.5-3.3,4.1-2.9,6.3-6.9c2.2-4.1,3.6-5.8-2.3-9.4c-5.9-3.6-1.5-3,0.5-7c2-4-3.3-9.3-2.7-10.5
			c0.5-1.2,11.9-3.4,16,0.3c4.2,3.7,10.4,2.7,9.5,6.9c-0.8,4.2,1,7.9,4.8,7.1c3.8-0.8,7.2-4.8,8.8-6.2c1.6-1.4-0.5,3.8,2.8,6.7
			c3.3,2.9,7.8,4.1,6,8c-1.8,4-0.7,4.5,7,7.7c7.8,3.1,11.7,5.4,8.6,8.1c-3.1,2.8-6.4,0.6-8.7,4.4c-2.3,3.9,3.6,4.6-6.8,3.8
			c-10.4-0.8-17.1-1.3-17.6,0.2c-0.5,1.5,5.7,1.1,7.2,2.4c1.5,1.3-1,1,0.7,6.6c1.8,5.5,4.7,8.1,7.4,7c2.7-1.1,5.1-4.6,6.2-3
			c1,1.7,0.6,4.7-3.3,6c-3.9,1.3-7.2,2.9-8.9,4.4c-1.7,1.5-6.8,1.1-6.3-0.2c0.5-1.3-0.5-4.6-2.7-2.7c-2.2,1.9-5.3,1.1-8.7,6
			c-3.4,4.9-5.8,4.1-8.3,7.7c-2.5,3.6-11.5,5.9-9.6,7.5c1.8,1.6,4.5,9.7-0.8,13.3c-5.3,3.6-8.4,6.1-9,8.6c-0.6,2.5-3.6,6.8-1.3,10.3
			c2.3,3.4,1.7,5,1.7,6.6c0,1.6,2.6,6.4-1.4,3.8c-4-2.6-4.6-5.5-5.1-8c-0.5-2.5,0.6-6.5-2.6-5.8c-3.3,0.6-3.7,1.6-6.6-0.9
			c-2.9-2.5-8.1-3.6-11.1-1c-3,2.6-1.8,4.7-5.7,3.1c-3.9-1.6-11.1-0.8-13.7,1.6c-2.7,2.4-1.5,4.8-1.5,8.4s-1.9,4.6-0.8,9
			c1,4.3-2.2,8.5,1.8,11.9c3.9,3.5,6.1,6.6,11.1,5.4c5-1.2,6.3-0.3,7.1-3.1c0.8-2.9-0.5-5.7,4.7-7.1c5.2-1.4,5.2-1.1,4.5,2.5
			c-0.7,3.6-0.9,8.4-3.1,10.4c-2.2,1.9-1.5,5.5,1.9,4.9c3.4-0.6,11.5-3,11,2.4c-0.5,5.4-1,11,0.8,14c1.9,3,3,7.3,8.4,3.9
			s7.1-0.7,8.5,1.8c1.4,2.6,2.3,0.7,3.7-2.4c1.4-3.1,5.7-4.2,8.4-6.6c2.7-2.4,5.1-2.6,4.6-0.6c-0.5,2-1.9,7,0,7
			c1.9,0,3.6,1.4,1.9-1.4c-1.7-2.8-0.7-6.2,2.2-5.3c2.9,0.9,4.5,4.4,7.1,3.4c2.6-1,2.8,3,6.5,1.4c3.7-1.6,6.8-3.4,8.9-0.7
			c2.1,2.7-0.8,4.9,2.3,5.3c3.1,0.4,3.5,3,7.4,4.5c4,1.6,7.3,4.1,13.2,3.4c5.9-0.6,8.5,5.8,9.4,10.5c0.9,4.7-1.8,6.2-1.2,7.6
			c0.6,1.4,2.6-1.4,4.8-0.5c2.2,0.9,7.6,4.6,7.6,4.6s4.3,3.2,10.4,3.2c6.1,0,13.8,4.6,19,9.1c5.1,4.5,2.9,9.8-1.9,14
			c-4.8,4.2-8.6,8.1-8.6,13.4c0,5.3,3.8,8.5-3,14.6c-6.9,6.1,0.1,8.2-7.4,12c-7.6,3.8-16.4,4.4-17,9.6c-0.6,5.2,0,9.6-2.2,12.5
			c-2.2,2.9-4.1,6.7-8.9,8.2c-4.8,1.6,2.2,6.4-4.4,5.5c-6.6-0.8-12.4-2-12.4-2s10.6,3,6.3,9.9c-4.3,6.9-5.7,6.7-8.5,6.7
			c-2.8,0-7.6-2.3-6.5,0.7c1,3,1.7,7-1.6,7.7c-3.3,0.6-5.6,2.5-4.4,4.5c1.2,2-2.3,7.9-5.3,9.5c-3,1.6-9.2,0.6-2.7,4.8
			c6.5,4.2,6.1,4.5,4.2,6.2C280.5,470,278.4,472.9,278.4,472.9z"/>
		<path class="st1" d="M232,246.7c0,3.8,3.1-4.5,7.8-2c4.6,2.5,10.2,4.8,10.2,5.6c0,0.8-5,0.3-0.7,2.6c4.3,2.3,6.2-0.9,9.8,0
			c3.6,0.9,5,1.3,6.1,3.6c1,2.3,3.7,1.8,4.4,1.2c0.7-0.6,3.7,1.5,4.9,0.4c1.3-1.1,3.7-1.6,2.2-2.9c-1.5-1.3-6.2-0.6-7.9-1
			c-1.7-0.5-2.5-1.3-4.9-1.7c-2.4-0.4-2.4,0.8-5.1-1.6c-2.7-2.4-9.5-5.3-13.3-6.8c-3.8-1.5-6.1-3.3-9.2-2.7
			C232.9,242.1,232,245,232,246.7z"/>
		<path class="st1" d="M301.7,159.3c2.2,0,2.4-0.8,7.9-0.8c5.5,0,9.2-2.1,6.4,0.4c-2.9,2.5-4.2,3.7-2,2.8c2.2-0.8,5.4-3.5,6-1.7
			c0.6,1.7,2,3.1,2.7,2c0.6-1.1,2.7-2.2,0-3.3c-2.7-1.1,1-2.3-1.7-3.7c-2.8-1.5-4.4,0.3-4.4-2.1c0-2.4-4.3,0.9-5.5-0.9
			c-1.2-1.8-2.1-1.6-0.9-3.9c1.3-2.4,3-5.5,0.5-3.3c-2.5,2.2-4.2,0.9-4.2,4.4c0,3.5,0.6,3.9-1.2,5.5
			C303.3,156.3,300.5,159.3,301.7,159.3z"/>
	</g>
</g>
<g id="AMSTERDAM">
	<line class="st2" x1="478" y1="144" x2="569.5" y2="128"/>
	<line class="st2" x1="478" y1="144" x2="491" y2="149"/>
	<line class="st2" x1="478" y1="144" x2="549.5" y2="153"/>
	<line class="st2" x1="478" y1="144" x2="531.5" y2="155"/>
	<line class="st2" x1="478" y1="144" x2="487" y2="167.5"/>
	<line class="st2" x1="478" y1="144" x2="132" y2="172"/>
	<line class="st2" x1="478" y1="144" x2="125" y2="203"/>
	<line class="st2" x1="478" y1="144" x2="259.5" y2="173.5"/>
	<line class="st2" x1="478" y1="144" x2="233.5" y2="194.5"/>
	<line class="st2" x1="478" y1="144" x2="334" y2="383.5"/>
	<line class="st2" x1="478" y1="144" x2="344" y2="381"/>
	<line class="st2" x1="478" y1="144" x2="543" y2="392.5"/>
	<line class="st2" x1="478" y1="144" x2="754" y2="312.5"/>
	<line class="st2" x1="478" y1="144" x2="782.5" y2="252"/>
	<line class="st2" x1="478" y1="144" x2="461.5" y2="142"/>
	<line class="st2" x1="478" y1="144" x2="470.5" y2="160"/>
	<line class="st2" x1="478" y1="144" x2="818" y2="204"/>
	<line class="st2" x1="478" y1="144" x2="534.5" y2="105"/>
	<line class="st2" x1="478" y1="144" x2="510.5" y2="108"/>
	<line class="st2" x1="478" y1="144" x2="886.5" y2="417"/>
</g>
<g id="INTERNAT_STEDEN">
	<g>
		<line class="st3" x1="543" y1="392.5" x2="886.5" y2="417"/>
		<line class="st3" x1="531.5" y1="155" x2="886.5" y2="417"/>
		<line class="st3" x1="487" y1="167.5" x2="886.5" y2="417"/>
		<line class="st3" x1="491" y1="149" x2="886.5" y2="417"/>
		<line class="st3" x1="549.5" y1="153" x2="886.5" y2="417"/>
		<line class="st3" x1="569.5" y1="128" x2="886.5" y2="417"/>
		<line class="st3" x1="470.5" y1="160" x2="886.5" y2="417"/>
		<line class="st3" x1="461.5" y1="142" x2="886.5" y2="417"/>
		<line class="st3" x1="510.5" y1="108" x2="886.5" y2="417"/>
		<line class="st3" x1="534.5" y1="105" x2="886.5" y2="417"/>
		<line class="st3" x1="344" y1="381" x2="886.5" y2="417"/>
		<line class="st3" x1="334" y1="383.5" x2="886.5" y2="417"/>
		<line class="st3" x1="125" y1="203" x2="886.5" y2="417"/>
		<line class="st3" x1="233.5" y1="194.5" x2="886.5" y2="417"/>
		<line class="st3" x1="132" y1="172" x2="886.5" y2="417"/>
		<line class="st3" x1="259.5" y1="173.5" x2="886.5" y2="417"/>
		<line class="st3" x1="754" y1="312.5" x2="886.5" y2="417"/>
		<line class="st3" x1="782.5" y1="252" x2="886.5" y2="417"/>
		<line class="st3" x1="818" y1="204" x2="886.5" y2="417"/>
		<line class="st3" x1="818" y1="204" x2="334" y2="383.5"/>
		<line class="st3" x1="818" y1="204" x2="344" y2="381"/>
		<line class="st3" x1="818" y1="204" x2="125" y2="203"/>
		<line class="st3" x1="818" y1="204" x2="233.5" y2="194.5"/>
		<line class="st3" x1="818" y1="204" x2="132" y2="172"/>
		<line class="st3" x1="818" y1="204" x2="259.5" y2="173.5"/>
		<line class="st3" x1="818" y1="204" x2="470.5" y2="160"/>
		<line class="st3" x1="818" y1="204" x2="487" y2="167.5"/>
		<line class="st3" x1="818" y1="204" x2="531.5" y2="155"/>
		<line class="st3" x1="818" y1="204" x2="461.5" y2="142"/>
		<line class="st3" x1="818" y1="204" x2="491" y2="149"/>
		<line class="st3" x1="818" y1="204" x2="510.5" y2="108"/>
		<line class="st3" x1="818" y1="204" x2="534.5" y2="105"/>
		<line class="st3" x1="818" y1="204" x2="543" y2="392.5"/>
		<line class="st3" x1="818" y1="204" x2="549.5" y2="153"/>
		<line class="st3" x1="818" y1="204" x2="569.5" y2="128"/>
		<line class="st3" x1="818" y1="204" x2="754" y2="312.5"/>
		<line class="st3" x1="818" y1="204" x2="782.5" y2="252"/>
		<line class="st3" x1="534.5" y1="105" x2="782.5" y2="252"/>
		<line class="st3" x1="510.5" y1="108" x2="782.5" y2="252"/>
		<line class="st3" x1="549.5" y1="153" x2="782.5" y2="252"/>
		<line class="st3" x1="531.5" y1="155" x2="782.5" y2="252"/>
		<line class="st3" x1="491" y1="149" x2="782.5" y2="252"/>
		<line class="st3" x1="487" y1="167.5" x2="782.5" y2="252"/>
		<line class="st3" x1="461.5" y1="142" x2="782.5" y2="252"/>
		<line class="st3" x1="470.5" y1="160" x2="782.5" y2="252"/>
		<line class="st3" x1="132" y1="172" x2="782.5" y2="252"/>
		<line class="st3" x1="125" y1="203" x2="782.5" y2="252"/>
		<line class="st3" x1="233.5" y1="194.5" x2="782.5" y2="252"/>
		<line class="st3" x1="259.5" y1="173.5" x2="782.5" y2="252"/>
		<line class="st3" x1="334" y1="383.5" x2="782.5" y2="252"/>
		<line class="st3" x1="344" y1="381" x2="782.5" y2="252"/>
		<line class="st3" x1="569.5" y1="128" x2="782.5" y2="252"/>
		<line class="st3" x1="543" y1="392.5" x2="782.5" y2="252"/>
		<line class="st3" x1="754" y1="312.5" x2="782.5" y2="252"/>
		<line class="st3" x1="754" y1="312.5" x2="569.5" y2="128"/>
		<line class="st3" x1="754" y1="312.5" x2="534.5" y2="105"/>
		<line class="st3" x1="754" y1="312.5" x2="549.5" y2="153"/>
		<line class="st3" x1="754" y1="312.5" x2="531.5" y2="155"/>
		<line class="st3" x1="754" y1="312.5" x2="487" y2="167.5"/>
		<line class="st3" x1="754" y1="312.5" x2="491" y2="149"/>
		<line class="st3" x1="754" y1="312.5" x2="470.5" y2="160"/>
		<line class="st3" x1="754" y1="312.5" x2="461.5" y2="142"/>
		<line class="st3" x1="754" y1="312.5" x2="132" y2="172"/>
		<line class="st3" x1="754" y1="312.5" x2="125" y2="203"/>
		<line class="st3" x1="754" y1="312.5" x2="259.5" y2="173.5"/>
		<line class="st3" x1="754" y1="312.5" x2="233.5" y2="194.5"/>
		<line class="st3" x1="754" y1="312.5" x2="334" y2="383.5"/>
		<line class="st3" x1="754" y1="312.5" x2="344" y2="381"/>
		<line class="st3" x1="754" y1="312.5" x2="543" y2="392.5"/>
		<line class="st3" x1="569.5" y1="128" x2="543" y2="392.5"/>
		<line class="st3" x1="344" y1="381" x2="569.5" y2="128"/>
		<line class="st3" x1="549.5" y1="153" x2="569.5" y2="128"/>
		<line class="st3" x1="534.5" y1="105" x2="569.5" y2="128"/>
		<line class="st3" x1="510.5" y1="108" x2="569.5" y2="128"/>
		<line class="st3" x1="531.5" y1="155" x2="569.5" y2="128"/>
		<line class="st3" x1="487" y1="167.5" x2="569.5" y2="128"/>
		<line class="st3" x1="491" y1="149" x2="569.5" y2="128"/>
		<line class="st3" x1="470.5" y1="160" x2="569.5" y2="128"/>
		<line class="st3" x1="461.5" y1="142" x2="569.5" y2="128"/>
		<line class="st3" x1="125" y1="203" x2="569.5" y2="128"/>
		<line class="st3" x1="132" y1="172" x2="569.5" y2="128"/>
		<line class="st3" x1="233.5" y1="194.5" x2="569.5" y2="128"/>
		<line class="st3" x1="259.5" y1="173.5" x2="569.5" y2="128"/>
		<line class="st3" x1="549.5" y1="153" x2="543" y2="392.5"/>
		<line class="st3" x1="344" y1="381" x2="549.5" y2="153"/>
		<line class="st3" x1="549.5" y1="153" x2="534.5" y2="105"/>
		<line class="st3" x1="549.5" y1="153" x2="510.5" y2="108"/>
		<line class="st3" x1="549.5" y1="153" x2="531.5" y2="155"/>
		<line class="st3" x1="549.5" y1="153" x2="491" y2="149"/>
		<line class="st3" x1="549.5" y1="153" x2="487" y2="167.5"/>
		<line class="st3" x1="549.5" y1="153" x2="471.3" y2="159.9"/>
		<line class="st3" x1="549.5" y1="153" x2="461.5" y2="142"/>
		<line class="st3" x1="549.5" y1="153" x2="132" y2="172"/>
		<line class="st3" x1="549.5" y1="153" x2="233.5" y2="194.5"/>
		<line class="st3" x1="549.5" y1="153" x2="259.5" y2="173.5"/>
		<line class="st3" x1="549.5" y1="153" x2="334" y2="383.5"/>
		<line class="st3" x1="549.5" y1="153" x2="344" y2="381"/>
		<line class="st3" x1="549.5" y1="153" x2="125" y2="203"/>
		<line class="st3" x1="259.5" y1="173.5" x2="543" y2="392.5"/>
		<line class="st3" x1="233.5" y1="194.5" x2="543" y2="392.5"/>
		<line class="st3" x1="132" y1="172" x2="543" y2="392.5"/>
		<line class="st3" x1="125" y1="203" x2="543" y2="392.5"/>
		<line class="st3" x1="334" y1="383.5" x2="543" y2="392.5"/>
		<line class="st3" x1="344" y1="381" x2="543" y2="392.5"/>
		<line class="st3" x1="461.5" y1="142" x2="543" y2="392.5"/>
		<line class="st3" x1="470.5" y1="160" x2="543" y2="392.5"/>
		<line class="st3" x1="487" y1="167.5" x2="543" y2="392.5"/>
		<line class="st3" x1="491" y1="149" x2="543" y2="392.5"/>
		<line class="st3" x1="531.5" y1="155" x2="543" y2="392.5"/>
		<line class="st3" x1="534.5" y1="105" x2="543" y2="392.5"/>
		<line class="st3" x1="344" y1="381" x2="531.5" y2="155"/>
		<line class="st3" x1="344" y1="381" x2="534.5" y2="105"/>
		<line class="st3" x1="344" y1="381" x2="510.5" y2="108"/>
		<line class="st3" x1="344" y1="381" x2="491" y2="149"/>
		<line class="st3" x1="344" y1="381" x2="487" y2="167.5"/>
		<line class="st3" x1="344" y1="381" x2="470.5" y2="160"/>
		<line class="st3" x1="344" y1="381" x2="461.5" y2="142"/>
		<line class="st3" x1="344" y1="381" x2="233.5" y2="194.5"/>
		<line class="st3" x1="344" y1="381" x2="259.5" y2="173.5"/>
		<line class="st3" x1="344" y1="381" x2="132" y2="172"/>
		<line class="st3" x1="344" y1="381" x2="125" y2="203"/>
		<line class="st3" x1="344" y1="381" x2="334" y2="383.5"/>
		<line class="st3" x1="534.5" y1="105" x2="334" y2="383.5"/>
		<line class="st3" x1="534.5" y1="105" x2="125" y2="203"/>
		<line class="st3" x1="534.5" y1="105" x2="132" y2="172"/>
		<line class="st3" x1="534.5" y1="105" x2="233.5" y2="194.5"/>
		<line class="st3" x1="534.5" y1="105" x2="259.5" y2="173.5"/>
		<line class="st3" x1="534.5" y1="105" x2="461.5" y2="142"/>
		<line class="st3" x1="534.5" y1="105" x2="470.5" y2="160"/>
		<line class="st3" x1="534.5" y1="105" x2="491" y2="149"/>
		<line class="st3" x1="534.5" y1="105" x2="487" y2="167.5"/>
		<line class="st3" x1="534.5" y1="105" x2="510.5" y2="108"/>
		<line class="st3" x1="534.5" y1="105" x2="531.5" y2="155"/>
		<line class="st3" x1="510.5" y1="108" x2="259.5" y2="173.5"/>
		<line class="st3" x1="510.5" y1="108" x2="334" y2="383.5"/>
		<line class="st3" x1="510.5" y1="108" x2="132" y2="172"/>
		<line class="st3" x1="510.5" y1="108" x2="233.5" y2="194.5"/>
		<line class="st3" x1="510.5" y1="108" x2="125" y2="203"/>
		<line class="st3" x1="510.5" y1="108" x2="487" y2="167.5"/>
		<line class="st3" x1="510.5" y1="108" x2="470.5" y2="160"/>
		<line class="st3" x1="510.5" y1="108" x2="461.5" y2="142"/>
		<line class="st3" x1="510.5" y1="108" x2="491" y2="149"/>
		<line class="st3" x1="510.5" y1="108" x2="531.5" y2="155"/>
		<line class="st3" x1="531.5" y1="155" x2="259.5" y2="173.5"/>
		<line class="st3" x1="531.5" y1="155" x2="132" y2="172"/>
		<line class="st3" x1="531.5" y1="155" x2="125" y2="203"/>
		<line class="st3" x1="531.5" y1="155" x2="461.5" y2="142"/>
		<line class="st3" x1="531.5" y1="155" x2="233.5" y2="194.5"/>
		<line class="st3" x1="531.5" y1="155" x2="491" y2="149"/>
		<line class="st3" x1="531.5" y1="155" x2="470.5" y2="160"/>
		<line class="st3" x1="531.5" y1="155" x2="487" y2="167.5"/>
		<line class="st3" x1="531.5" y1="155" x2="334" y2="383.5"/>
		<line class="st3" x1="487" y1="167.5" x2="491" y2="149"/>
		<line class="st3" x1="470.5" y1="160" x2="491" y2="149"/>
		<line class="st3" x1="461.5" y1="142" x2="491" y2="149"/>
		<line class="st3" x1="334" y1="383.5" x2="491" y2="149"/>
		<line class="st3" x1="259.5" y1="173.5" x2="491" y2="149"/>
		<line class="st3" x1="125" y1="203" x2="491" y2="149"/>
		<line class="st3" x1="132" y1="172" x2="491" y2="149"/>
		<line class="st3" x1="233.5" y1="194.5" x2="491" y2="149"/>
		<line class="st3" x1="334" y1="383.5" x2="487" y2="167.5"/>
		<line class="st3" x1="334" y1="383.5" x2="470.5" y2="160"/>
		<line class="st3" x1="334" y1="383.5" x2="461.5" y2="142"/>
		<line class="st3" x1="334" y1="383.5" x2="259.5" y2="173.5"/>
		<line class="st3" x1="334" y1="383.5" x2="233.5" y2="194.5"/>
		<line class="st3" x1="334" y1="383.5" x2="132" y2="172"/>
		<line class="st3" x1="334" y1="383.5" x2="125" y2="203"/>
		<line class="st3" x1="487" y1="167.5" x2="470.5" y2="160"/>
		<line class="st3" x1="487" y1="167.5" x2="461.5" y2="142"/>
		<line class="st3" x1="487" y1="167.5" x2="259.5" y2="173.5"/>
		<line class="st3" x1="487" y1="167.5" x2="233.5" y2="194.5"/>
		<line class="st3" x1="487" y1="167.5" x2="132" y2="172"/>
		<line class="st3" x1="487" y1="167.5" x2="125" y2="203"/>
		<line class="st3" x1="461.5" y1="142" x2="259.5" y2="173.5"/>
		<line class="st3" x1="461.5" y1="142" x2="233.5" y2="194.5"/>
		<line class="st3" x1="461.5" y1="142" x2="132" y2="172"/>
		<line class="st3" x1="461.5" y1="142" x2="125" y2="203"/>
		<line class="st3" x1="259.5" y1="173.5" x2="233.5" y2="194.5"/>
		<line class="st3" x1="259.5" y1="173.5" x2="132" y2="172"/>
		<line class="st3" x1="259.5" y1="173.5" x2="125" y2="203"/>
		<line class="st3" x1="233.5" y1="194.5" x2="132" y2="172"/>
		<line class="st3" x1="233.5" y1="194.5" x2="125" y2="203"/>
		<line class="st3" x1="125" y1="203" x2="132" y2="172"/>
		<line class="st3" x1="470.5" y1="160" x2="461.5" y2="142"/>
		<line class="st3" x1="470.5" y1="160" x2="259.5" y2="173.5"/>
		<line class="st3" x1="470.5" y1="160" x2="132" y2="172"/>
		<line class="st3" x1="470.5" y1="160" x2="233.5" y2="194.5"/>
		<line class="st3" x1="470.5" y1="160" x2="125" y2="203"/>
	</g>
</g>
<g id="LOCATIES">
	<circle class="st4" cx="132" cy="172" r="5"/>
	<circle class="st4" cx="125" cy="203" r="5"/>
	<circle class="st4" cx="233.5" cy="194.5" r="5"/>
	<circle class="st4" cx="259.5" cy="173.5" r="5"/>
	<circle class="st4" cx="334" cy="383.5" r="5"/>
	<circle class="st4" cx="344" cy="381" r="5"/>
	<circle class="st4" cx="543" cy="392.5" r="5"/>
	<circle class="st4" cx="487" cy="167.5" r="5"/>
	<circle class="st4" cx="470.5" cy="160" r="5"/>
	<circle class="st4" cx="461.5" cy="142" r="5"/>
	<circle class="st1" cx="478" cy="144" r="5"/>
	<circle class="st4" cx="491" cy="149" r="5"/>
	<circle class="st4" cx="510.5" cy="108" r="5"/>
	<circle class="st4" cx="534.5" cy="105" r="5"/>
	<circle class="st4" cx="531.5" cy="155" r="5"/>
	<circle class="st4" cx="549.5" cy="153" r="5"/>
	<circle class="st4" cx="569.5" cy="128" r="5"/>
	<circle class="st4" cx="782.5" cy="252" r="5"/>
	<circle class="st4" cx="818" cy="204" r="5"/>
	<circle class="st4" cx="754" cy="312.5" r="5"/>
	<circle class="st4" cx="886.5" cy="417" r="5"/>
</g>
</svg>
