<?xml version="1.0" encoding="utf-8"?>
<!-- Generator: Adobe Illustrator 22.1.0, SVG Export Plug-In . SVG Version: 6.00 Build 0)  -->
<svg version="1.1" xmlns="http://www.w3.org/2000/svg" xmlns:xlink="http://www.w3.org/1999/xlink" x="0px" y="0px"
	 viewBox="0 0 209.3 177" style="enable-background:new 0 0 209.3 177;" xml:space="preserve">
<style type="text/css">
	.st0{fill:url(#SVGID_1_);}
</style>
<g id="Laag_2">
</g>
<g id="Laag_1">
	<g>
		<path d="M113.1,109l-0.7-3.6h-3.1l-0.7,3.6h-1.2l3-13.3h1l2.9,13.3H113.1z M110.8,97.7l-1.3,6.7h2.7L110.8,97.7z"/>
		<path d="M122.6,109V98.3l-2.4,7h-0.8l-2.4-6.8V109h-1.1V95.7h1.1l2.8,7.8l2.8-7.8h1.1V109H122.6z"/>
		<path d="M131,108.4c-0.4,0.4-1.1,0.7-2.1,0.7c-0.9,0-1.6-0.2-2.1-0.7c-0.6-0.6-0.8-1.3-0.8-2.7h1.1c0,1,0.1,1.6,0.5,2
			c0.3,0.3,0.7,0.4,1.3,0.4c0.6,0,1-0.2,1.3-0.4c0.4-0.5,0.5-1,0.5-2.1c0-1.7-0.3-2.3-1.4-2.7l-1.4-0.6c-1.4-0.6-1.8-1.3-1.8-3.3
			c0-1.1,0.3-2.1,0.9-2.6c0.5-0.5,1.1-0.7,1.9-0.7c0.9,0,1.5,0.3,2,0.7c0.7,0.7,0.8,1.4,0.8,2.6h-1.1c0-0.8-0.1-1.4-0.5-1.8
			c-0.3-0.3-0.7-0.5-1.2-0.5c-0.5,0-0.9,0.2-1.2,0.4c-0.4,0.4-0.6,1.1-0.6,1.9c0,1.5,0.2,2,1.4,2.5l1.4,0.6c1.4,0.6,1.7,1.6,1.7,3.5
			C131.8,107,131.6,107.8,131,108.4z"/>
		<path d="M136.6,96.7V109h-1.1V96.7h-2.2v-1h5.5v1H136.6z"/>
		<path d="M140.8,109V95.7h4.6v1h-3.5v5.2h3v1h-3v5.2h3.5v1H140.8z"/>
		<path d="M152.6,109l-1.9-6H149v6h-1.1V95.7h2.6c1.6,0,2.9,0.6,2.9,3.7c0,2.1-0.5,3-1.6,3.5l2.1,6.2H152.6z M150.5,96.7H149v5.4
			h1.5c1.3,0,1.7-1,1.7-2.7S151.9,96.7,150.5,96.7z"/>
		<path d="M160.9,108.3c-0.4,0.5-1.1,0.8-2,0.8h-2.7V95.7h2.7c0.9,0,1.5,0.3,2,0.8c0.8,0.9,0.9,1.9,0.9,5.9
			C161.9,106.4,161.8,107.4,160.9,108.3z M160.1,97.2c-0.3-0.3-0.7-0.5-1.2-0.5h-1.6V108h1.6c0.5,0,1-0.2,1.2-0.5
			c0.6-0.6,0.7-1.4,0.7-5.2S160.7,97.8,160.1,97.2z"/>
		<path d="M169.1,109l-0.7-3.6h-3.1l-0.7,3.6h-1.2l3-13.3h1l2.9,13.3H169.1z M166.8,97.7l-1.3,6.7h2.7L166.8,97.7z"/>
		<path d="M178.6,109V98.3l-2.4,7h-0.8l-2.4-6.8V109h-1.1V95.7h1.1l2.8,7.8l2.8-7.8h1.1V109H178.6z"/>
	</g>
	<g>
		<path d="M107.2,91.7V62.1h12.6v4h-8.4v8.7h7.3v4h-7.3v8.7h8.4v4.2H107.2z"/>
		<path d="M122.3,69.1c0-1.2,0.2-2.2,0.6-3.2c0.4-0.9,1-1.7,1.7-2.3c0.7-0.6,1.4-1,2.3-1.3c0.8-0.3,1.7-0.5,2.6-0.5
			c0.9,0,1.7,0.2,2.6,0.5c0.8,0.3,1.6,0.7,2.3,1.3c0.7,0.6,1.2,1.4,1.6,2.3c0.4,0.9,0.6,2,0.6,3.2v15.6c0,1.2-0.2,2.3-0.6,3.2
			c-0.4,0.9-1,1.6-1.6,2.2c-0.7,0.6-1.5,1.1-2.3,1.4s-1.7,0.5-2.6,0.5c-0.9,0-1.7-0.2-2.6-0.5c-0.8-0.3-1.6-0.8-2.3-1.4
			c-0.7-0.6-1.2-1.3-1.7-2.2c-0.4-0.9-0.6-2-0.6-3.2V69.1z M126.5,84.7c0,1,0.3,1.8,0.9,2.3c0.6,0.5,1.2,0.7,2,0.7
			c0.8,0,1.4-0.2,2-0.7c0.6-0.5,0.9-1.2,0.9-2.3V69.1c0-1-0.3-1.8-0.9-2.3c-0.6-0.5-1.2-0.7-2-0.7c-0.8,0-1.4,0.2-2,0.7
			c-0.6,0.5-0.9,1.2-0.9,2.3V84.7z"/>
		<path d="M154,70.6h-4.2v-1c0-1-0.2-1.8-0.7-2.5c-0.5-0.7-1.2-1.1-2.3-1.1c-0.6,0-1.1,0.1-1.4,0.3s-0.7,0.5-0.9,0.8
			c-0.2,0.4-0.4,0.8-0.5,1.2s-0.1,0.9-0.1,1.4c0,0.6,0,1.1,0.1,1.5c0,0.4,0.1,0.7,0.3,1c0.2,0.3,0.4,0.6,0.7,0.8
			c0.3,0.2,0.8,0.4,1.3,0.7l3.2,1.3c0.9,0.4,1.7,0.8,2.3,1.3c0.6,0.5,1,1,1.4,1.7c0.3,0.7,0.5,1.4,0.6,2.3s0.2,1.8,0.2,2.9
			c0,1.2-0.1,2.4-0.4,3.5c-0.2,1.1-0.7,2-1.2,2.7c-0.6,0.8-1.3,1.4-2.3,1.8c-0.9,0.4-2.1,0.7-3.5,0.7c-1,0-2-0.2-2.9-0.5
			s-1.6-0.9-2.3-1.5c-0.6-0.6-1.1-1.4-1.5-2.2s-0.6-1.8-0.6-2.8v-1.6h4.2v1.3c0,0.8,0.2,1.5,0.7,2.1s1.2,0.9,2.3,0.9
			c0.7,0,1.3-0.1,1.7-0.3c0.4-0.2,0.7-0.5,0.9-0.9c0.2-0.4,0.4-0.9,0.4-1.4c0-0.5,0.1-1.1,0.1-1.8c0-0.8,0-1.4-0.1-1.9
			s-0.2-0.9-0.3-1.2c-0.2-0.3-0.5-0.6-0.8-0.7c-0.3-0.2-0.7-0.4-1.3-0.6l-3-1.2c-1.8-0.7-3.1-1.7-3.7-3c-0.6-1.2-0.9-2.8-0.9-4.6
			c0-1.1,0.2-2.2,0.5-3.2c0.3-1,0.8-1.9,1.4-2.6c0.6-0.7,1.3-1.3,2.2-1.7c0.9-0.4,2-0.6,3.2-0.6c1.1,0,2,0.2,2.9,0.6
			c0.9,0.4,1.6,0.9,2.3,1.5c1.3,1.3,1.9,2.9,1.9,4.6V70.6z"/>
	</g>
	<g>
		<path d="M112.6,126.7h-0.9l-1.1-5.8l-1.1,5.8h-0.9l-1.3-7.2h1l0.7,5.8l1.1-5.8h1l1.1,5.8l0.7-5.8h1L112.6,126.7z"/>
		<path d="M116.5,126.7v-3.9c0-0.5-0.3-0.7-0.6-0.7s-0.6,0.2-0.6,0.7v3.9h-0.8v-7.2h0.8v2.4c0.1-0.1,0.2-0.2,0.3-0.3
			c0.2-0.1,0.4-0.2,0.6-0.2c0.4,0,0.7,0.1,0.9,0.4c0.2,0.2,0.3,0.5,0.3,1.1v3.9H116.5z"/>
		<path d="M119.1,124.3c0,0.8,0,1.3,0.2,1.6c0.1,0.1,0.2,0.2,0.5,0.2c0.2,0,0.3-0.1,0.5-0.2c0.1-0.1,0.2-0.4,0.2-0.6h0.8
			c0,0.5-0.1,0.9-0.4,1.2c-0.3,0.3-0.6,0.4-1,0.4c-0.5,0-0.8-0.1-1-0.4c-0.4-0.4-0.5-1.2-0.5-2.3s0.1-1.9,0.5-2.3
			c0.3-0.3,0.6-0.4,1-0.4c0.4,0,0.8,0.1,1,0.4c0.4,0.5,0.5,1.4,0.5,2.5H119.1z M120.3,122.3c-0.1-0.1-0.3-0.2-0.5-0.2
			s-0.4,0.1-0.5,0.2c-0.2,0.2-0.2,0.6-0.2,1.3h1.3C120.5,123,120.4,122.5,120.3,122.3z"/>
		<path d="M124.1,122.2c-0.6,0-1,0.4-1,1v3.6h-0.8v-5.3h0.8v0.6c0.1-0.1,0.2-0.3,0.4-0.4c0.2-0.2,0.5-0.3,0.9-0.3v0.8H124.1z"/>
		<path d="M125.6,124.3c0,0.8,0,1.3,0.2,1.6c0.1,0.1,0.2,0.2,0.5,0.2c0.2,0,0.3-0.1,0.5-0.2c0.1-0.1,0.2-0.4,0.2-0.6h0.8
			c0,0.5-0.1,0.9-0.4,1.2c-0.3,0.3-0.6,0.4-1,0.4c-0.5,0-0.8-0.1-1-0.4c-0.4-0.4-0.5-1.2-0.5-2.3s0.1-1.9,0.5-2.3
			c0.3-0.3,0.6-0.4,1-0.4c0.4,0,0.8,0.1,1,0.4c0.4,0.5,0.5,1.4,0.5,2.5H125.6z M126.8,122.3c-0.1-0.1-0.3-0.2-0.5-0.2
			s-0.4,0.1-0.5,0.2c-0.2,0.2-0.2,0.6-0.2,1.3h1.3C127,123,126.9,122.5,126.8,122.3z"/>
		<path d="M131.3,126.4c-0.3-0.2-0.5-0.6-0.5-1.2v-3.1h-0.6v-0.6h0.6V120h0.8v1.4h0.8v0.6h-0.8v3.1c0,0.6,0.3,0.8,0.8,0.8v0.7
			C132,126.7,131.6,126.7,131.3,126.4z"/>
		<path d="M135.1,122.2c-0.6,0-1,0.4-1,1v3.6h-0.8v-5.3h0.8v0.6c0.1-0.1,0.2-0.3,0.4-0.4c0.2-0.2,0.5-0.3,0.9-0.3v0.8H135.1z"/>
		<path d="M138.1,126.7v-0.4c-0.1,0.1-0.2,0.3-0.3,0.3c-0.2,0.1-0.4,0.2-0.6,0.2c-0.4,0-0.7-0.1-0.9-0.4c-0.2-0.2-0.3-0.5-0.3-1.1
			v-3.9h0.8v3.9c0,0.5,0.3,0.7,0.6,0.7c0.3,0,0.6-0.2,0.6-0.7v-3.9h0.8v5.3H138.1z"/>
		<path d="M142.4,126.4c-0.3,0.3-0.7,0.4-1.1,0.4s-0.8-0.1-1.1-0.4c-0.3-0.3-0.4-0.7-0.4-1.2h0.8c0,0.3,0.1,0.5,0.2,0.6
			c0.1,0.1,0.3,0.2,0.5,0.2c0.2,0,0.4-0.1,0.5-0.2c0.1-0.1,0.2-0.3,0.2-0.5c0-0.2,0-0.3-0.1-0.5c-0.1-0.2-0.3-0.3-0.5-0.4l-0.7-0.3
			c-0.3-0.2-0.6-0.4-0.7-0.6c-0.1-0.2-0.2-0.4-0.2-0.7c0-0.5,0.2-0.8,0.4-1.1c0.3-0.3,0.6-0.4,1-0.4c0.4,0,0.8,0.1,1,0.4
			c0.3,0.3,0.4,0.6,0.4,1.2H142c0-0.3-0.1-0.5-0.2-0.6c-0.1-0.1-0.3-0.2-0.4-0.2c-0.2,0-0.3,0.1-0.5,0.2c-0.1,0.1-0.2,0.3-0.2,0.5
			c0,0.2,0,0.3,0.1,0.4c0.1,0.1,0.2,0.2,0.4,0.3l0.7,0.3c0.4,0.2,0.6,0.4,0.7,0.6c0.1,0.2,0.2,0.5,0.2,0.8
			C142.8,125.8,142.7,126.1,142.4,126.4z"/>
		<path d="M144.4,126.4c-0.3-0.2-0.5-0.6-0.5-1.2v-3.1h-0.6v-0.6h0.6V120h0.8v1.4h0.8v0.6h-0.8v3.1c0,0.6,0.3,0.8,0.8,0.8v0.7
			C145.1,126.7,144.7,126.7,144.4,126.4z"/>
		<path d="M112,136.9V133c0-0.5-0.3-0.7-0.6-0.7s-0.6,0.2-0.6,0.7v3.9h-0.8V133c0-0.5-0.3-0.7-0.6-0.7s-0.6,0.2-0.6,0.7v3.9h-0.8
			v-5.3h0.8v0.4c0.1-0.1,0.2-0.3,0.3-0.3c0.2-0.1,0.4-0.2,0.6-0.2c0.4,0,0.8,0.2,1,0.5c0.1-0.1,0.3-0.3,0.4-0.4
			c0.2-0.1,0.4-0.2,0.6-0.2c0.5,0,0.7,0.1,0.9,0.4c0.2,0.2,0.3,0.5,0.3,1.1v3.9H112z"/>
		<path d="M114.6,134.5c0,0.8,0,1.3,0.2,1.6c0.1,0.1,0.2,0.2,0.5,0.2c0.2,0,0.3-0.1,0.5-0.2c0.1-0.1,0.2-0.4,0.2-0.6h0.8
			c0,0.5-0.1,0.9-0.4,1.2c-0.3,0.3-0.6,0.4-1,0.4c-0.5,0-0.8-0.1-1-0.4c-0.4-0.4-0.5-1.2-0.5-2.3s0.1-1.9,0.5-2.3
			c0.3-0.3,0.6-0.4,1-0.4c0.4,0,0.8,0.1,1,0.4c0.4,0.5,0.5,1.4,0.5,2.5H114.6z M115.7,132.5c-0.1-0.1-0.3-0.2-0.5-0.2
			s-0.4,0.1-0.5,0.2c-0.2,0.2-0.2,0.6-0.2,1.3h1.3C115.9,133.1,115.9,132.7,115.7,132.5z"/>
		<path d="M118.4,134.5c0,0.8,0,1.3,0.2,1.6c0.1,0.1,0.2,0.2,0.5,0.2c0.2,0,0.3-0.1,0.5-0.2c0.1-0.1,0.2-0.4,0.2-0.6h0.8
			c0,0.5-0.1,0.9-0.4,1.2c-0.3,0.3-0.6,0.4-1,0.4c-0.5,0-0.8-0.1-1-0.4c-0.4-0.4-0.5-1.2-0.5-2.3s0.1-1.9,0.5-2.3
			c0.3-0.3,0.6-0.4,1-0.4c0.4,0,0.8,0.1,1,0.4c0.4,0.5,0.5,1.4,0.5,2.5H118.4z M119.5,132.5c-0.1-0.1-0.3-0.2-0.5-0.2
			c-0.2,0-0.4,0.1-0.5,0.2c-0.2,0.2-0.2,0.6-0.2,1.3h1.3C119.7,133.1,119.7,132.7,119.5,132.5z"/>
		<path d="M122.2,136.6c-0.3-0.2-0.5-0.6-0.5-1.2v-3.1h-0.6v-0.6h0.6v-1.4h0.8v1.4h0.8v0.6h-0.8v3.1c0,0.6,0.3,0.8,0.8,0.8v0.7
			C122.9,136.9,122.5,136.9,122.2,136.6z"/>
		<path d="M126.5,136.6c-0.3,0.3-0.7,0.4-1.1,0.4s-0.8-0.1-1.1-0.4c-0.3-0.3-0.4-0.7-0.4-1.2h0.8c0,0.3,0.1,0.5,0.2,0.6
			c0.1,0.1,0.3,0.2,0.5,0.2c0.2,0,0.4-0.1,0.5-0.2c0.1-0.1,0.2-0.3,0.2-0.5c0-0.2,0-0.3-0.1-0.5c-0.1-0.2-0.3-0.3-0.5-0.4l-0.7-0.3
			c-0.3-0.2-0.6-0.4-0.7-0.6c-0.1-0.2-0.2-0.4-0.2-0.7c0-0.5,0.2-0.8,0.4-1.1c0.3-0.3,0.6-0.4,1-0.4c0.4,0,0.8,0.1,1,0.4
			c0.3,0.3,0.4,0.6,0.4,1.2H126c0-0.3-0.1-0.5-0.2-0.6c-0.1-0.1-0.3-0.2-0.4-0.2c-0.2,0-0.3,0.1-0.5,0.2c-0.1,0.1-0.2,0.3-0.2,0.5
			c0,0.2,0,0.3,0.1,0.4c0.1,0.1,0.2,0.2,0.4,0.3l0.7,0.3c0.4,0.2,0.6,0.4,0.7,0.6c0.1,0.2,0.2,0.5,0.2,0.8
			C126.9,135.9,126.7,136.3,126.5,136.6z"/>
		<path d="M109.2,147.9c-0.2,0.9-0.9,1.1-1.8,1.1v-0.7c0.5,0,0.8-0.1,0.9-0.6l0.2-0.6l-1.3-5.3h0.9l0.8,4l0.8-4h0.9L109.2,147.9z"/>
		<path d="M113.8,146.7c-0.3,0.4-0.7,0.5-1.1,0.5s-0.8-0.1-1.1-0.5c-0.3-0.4-0.4-1.2-0.4-2.2c0-1.1,0.1-1.8,0.4-2.2
			c0.3-0.4,0.6-0.5,1.1-0.5s0.9,0.1,1.1,0.5c0.3,0.4,0.4,1.2,0.4,2.2C114.2,145.5,114.1,146.3,113.8,146.7z M113.2,142.7
			c-0.1-0.1-0.3-0.2-0.5-0.2s-0.4,0.1-0.5,0.2c-0.2,0.3-0.2,0.8-0.2,1.8s0,1.5,0.2,1.8c0.1,0.1,0.3,0.2,0.5,0.2s0.4-0.1,0.5-0.2
			c0.2-0.3,0.2-0.8,0.2-1.8S113.3,143,113.2,142.7z"/>
		<path d="M117.2,147.1v-0.4c-0.1,0.1-0.2,0.3-0.3,0.3c-0.2,0.1-0.4,0.2-0.6,0.2c-0.4,0-0.7-0.1-0.9-0.4c-0.2-0.2-0.3-0.5-0.3-1.1
			v-3.9h0.8v3.9c0,0.5,0.3,0.7,0.6,0.7c0.3,0,0.6-0.2,0.6-0.7v-3.9h0.8v5.3H117.2z"/>
		<path d="M121,142.5c-0.6,0-1,0.4-1,1v3.6h-0.8v-5.3h0.8v0.6c0.1-0.1,0.2-0.3,0.4-0.4c0.2-0.2,0.5-0.3,0.9-0.3v0.8H121z"/>
		<path d="M124.9,142.5v4.6h-0.8v-4.6h-0.6v-0.6h0.6v-0.5c0-0.5,0.2-0.9,0.5-1.2c0.3-0.3,0.7-0.3,1.2-0.3v0.7
			c-0.5,0-0.8,0.3-0.8,0.8v0.5h0.8v0.6H124.9z"/>
		<path d="M128.5,147.1v-0.4c-0.1,0.1-0.2,0.3-0.3,0.3c-0.2,0.1-0.4,0.2-0.6,0.2c-0.4,0-0.7-0.1-0.9-0.4c-0.2-0.2-0.3-0.5-0.3-1.1
			v-3.9h0.8v3.9c0,0.5,0.3,0.7,0.6,0.7c0.3,0,0.6-0.2,0.6-0.7v-3.9h0.8v5.3H128.5z"/>
		<path d="M131.1,146.8c-0.3-0.2-0.5-0.6-0.5-1.2v-3.1h-0.6v-0.6h0.6v-1.4h0.8v1.4h0.8v0.6h-0.8v3.1c0,0.6,0.3,0.8,0.8,0.8v0.7
			C131.9,147.1,131.5,147.1,131.1,146.8z"/>
		<path d="M135.2,147.1v-0.4c-0.1,0.1-0.2,0.3-0.3,0.3c-0.2,0.1-0.4,0.2-0.6,0.2c-0.4,0-0.7-0.1-0.9-0.4c-0.2-0.2-0.3-0.5-0.3-1.1
			v-3.9h0.8v3.9c0,0.5,0.3,0.7,0.6,0.7c0.3,0,0.6-0.2,0.6-0.7v-3.9h0.8v5.3H135.2z"/>
		<path d="M138.9,142.5c-0.6,0-1,0.4-1,1v3.6h-0.8v-5.3h0.8v0.6c0.1-0.1,0.2-0.3,0.4-0.4c0.2-0.2,0.5-0.3,0.9-0.3v0.8H138.9z"/>
		<path d="M140.5,144.7c0,0.8,0,1.3,0.2,1.6c0.1,0.1,0.2,0.2,0.5,0.2c0.2,0,0.3-0.1,0.5-0.2c0.1-0.1,0.2-0.4,0.2-0.6h0.8
			c0,0.5-0.1,0.9-0.4,1.2c-0.3,0.3-0.6,0.4-1,0.4c-0.5,0-0.8-0.1-1-0.4c-0.4-0.4-0.5-1.2-0.5-2.3s0.1-1.9,0.5-2.3
			c0.3-0.3,0.6-0.4,1-0.4c0.4,0,0.8,0.1,1,0.4c0.4,0.5,0.5,1.4,0.5,2.5H140.5z M141.6,142.7c-0.1-0.1-0.3-0.2-0.5-0.2
			s-0.4,0.1-0.5,0.2c-0.2,0.2-0.2,0.6-0.2,1.3h1.3C141.8,143.3,141.8,142.9,141.6,142.7z"/>
	</g>
	<g>
		<linearGradient id="SVGID_1_" gradientUnits="userSpaceOnUse" x1="75.1335" y1="127.6413" x2="47.4668" y2="58.6413">
			<stop  offset="0" style="stop-color:#D67C1C"/>
			<stop  offset="0.2401" style="stop-color:#D3741C"/>
			<stop  offset="0.6398" style="stop-color:#CE5E1C"/>
			<stop  offset="1" style="stop-color:#C8421B"/>
		</linearGradient>
		<path class="st0" d="M57.3,104c2.3,4.5,4.3,10.3,5.7,14.6V88.7h-0.2c-6.2-0.6-11.1-5.9-11.1-12.3l-1.2-19.3c0,0,2.6,1.2,8.3,1.7
			c1.5-1.4,3.3-2.7,5.2-3.9c1.9,1.2,3.7,2.6,5.2,3.9c5.5-0.5,8.3-1.7,8.3-1.7l-1.2,19.3c0,6.4-4.9,11.6-11.1,12.3H65v31.4
			c1.8-3.9,3.8-8,6.1-11.7c4.6-7.6,9.5-8.7,9.5-8.7s-0.9,7.1-11.5,30.1l29.4-18.4L86.7,60.7L64.5,30.1h-0.2L42,60.7l-11.8,50.8
			l29.5,18.4c-11.9-28.2-13.2-32-16.5-38C43.2,91.9,53.3,96.3,57.3,104z"/>
	</g>
</g>
</svg>
